<svg width="288" height="192" viewBox="0 0 288 192" fill="none" xmlns="http://www.w3.org/2000/svg">
<g clip-path="url(#clip0_1829_297)">
<path d="M287.5 0H0.5V192H287.5V0Z" fill="white"/>
<path d="M258.27 41.2278V148.466C258.27 155.76 255.93 162.052 252.041 167.05C242.433 179.384 227.48 181.784 199.237 181.064C177.297 180.501 157.03 178.143 142.961 177.882C134.985 177.736 125.678 177.871 116.132 178.122C98.5067 178.581 79.0095 179.478 66.8016 179.603C50.9542 179.76 38.1016 165.663 38.1016 148.466V41.2278C38.1016 24.0313 50.975 9.07827 66.8016 10.0904C73.831 10.5391 82.6386 11.6452 91.9661 12.3861C102.375 13.2209 113.886 13.6591 125.647 12.4696C139.217 11.1026 157.394 10.1113 157.872 10.1113C159.442 10.0487 203.74 7.50262 229.57 10.0904C237.171 10.8522 244.107 14.1078 249.255 19.2C255.036 24.9287 258.27 32.6505 258.27 41.2278Z" fill="#DEEBE9"/>
<path d="M93.2549 92.6818L167.428 69.6731L195.67 84.5114L118.253 106.591L93.2549 92.6818Z" fill="#2F1A31"/>
<path d="M129.047 75.0887C129.047 75.0887 126.333 74.0765 125.573 74.5565C124.814 75.0365 123.182 76.8209 123.057 75.6313C122.984 74.9531 124.617 73.1374 125.012 72.5739C125.407 72.0104 125.532 71.3113 126.197 71.1652C126.936 70.9983 130.076 73.8157 130.076 73.8157C130.076 73.8157 129.775 74.1078 129.483 74.5461C129.057 75.1826 129.047 75.0887 129.047 75.0887Z" fill="#2F1A31"/>
<path d="M148.669 88.0382C146.621 88.0382 142.046 85.7738 137.751 83.0399C133.903 80.5877 130.295 77.7599 128.975 75.8608C128.319 74.9112 129.827 73.3669 130.545 73.033C132.572 72.1147 135.765 74.5147 139.779 76.1634C143.252 77.593 146.143 79.0747 146.143 79.0747L148.669 88.0382Z" fill="#74A1BD"/>
<path d="M148.669 88.0382C146.621 88.0382 142.046 85.7739 137.751 83.04L139.779 76.1635C143.252 77.593 146.143 79.0747 146.143 79.0747L148.669 88.0382Z" fill="#9BBCB6"/>
<path d="M121.955 80.1704C121.955 80.1704 119.127 79.5756 118.451 80.16C117.775 80.7443 116.423 82.7582 116.121 81.6C115.945 80.9321 117.296 78.8974 117.598 78.2817C117.91 77.6661 117.931 76.9565 118.565 76.7061C119.262 76.4348 122.797 78.7513 122.797 78.7513C122.797 78.7513 122.548 79.0852 122.319 79.5652C121.976 80.2643 121.955 80.1704 121.955 80.1704Z" fill="#2F1A31"/>
<path d="M122.372 77.9583C121.259 78.3548 120.261 79.993 120.853 80.8174C123.266 84.1878 134.299 89.6869 138.105 89.113L138.656 81.4226C138.656 81.4226 124.441 77.2174 122.372 77.9583Z" fill="#9BBCB6"/>
<path d="M147.005 29.1966C147.213 29.1757 147.369 28.9774 147.349 28.7687L146.995 25.4713C146.974 25.2626 146.777 25.1061 146.569 25.127C146.361 25.1479 146.205 25.3461 146.225 25.5548L146.579 28.8522C146.61 29.0713 146.797 29.2174 147.005 29.1966Z" fill="#F7B686"/>
<path d="M146.028 29.3113C146.236 29.2904 146.392 29.0922 146.372 28.8835L145.976 25.2C145.956 24.9913 145.758 24.8348 145.55 24.8556C145.342 24.8765 145.186 25.0748 145.207 25.2835L145.602 28.9669C145.623 29.1756 145.81 29.3322 146.028 29.3113Z" fill="#F7B686"/>
<path d="M145.966 31.2521L146.059 31.1582C146.246 30.9808 146.246 30.6782 146.059 30.4904L144.302 28.7061C144.125 28.5182 143.823 28.5182 143.636 28.7061L143.543 28.8C143.356 28.9774 143.356 29.28 143.543 29.4678L145.3 31.2521C145.487 31.4295 145.778 31.4295 145.966 31.2521Z" fill="#F7B686"/>
<path d="M145.041 29.4157C145.249 29.3948 145.405 29.1966 145.384 28.9879L145.061 26.0348C145.041 25.8261 144.843 25.6696 144.635 25.6905C144.427 25.7113 144.271 25.9096 144.292 26.1183L144.614 29.0713C144.635 29.28 144.833 29.4366 145.041 29.4157Z" fill="#F7B686"/>
<path d="M147.879 31.0017C147.879 31.0017 148.784 28.9773 148.056 27.5791C147.807 27.0991 144.916 27.4852 144.708 28.0695C144.5 28.6434 144.905 30.6156 144.905 30.6156L147.879 31.0017Z" fill="#F7B686"/>
<path d="M147.983 29.0921C148.191 29.0713 148.347 28.873 148.326 28.6643L148.015 25.7217C147.994 25.513 147.796 25.3565 147.588 25.3774C147.38 25.3982 147.224 25.5965 147.245 25.8052L147.557 28.7478C147.588 28.9669 147.775 29.1234 147.983 29.0921Z" fill="#F7B686"/>
<path d="M128.964 52.5705C128.964 52.5705 129.12 49.2522 135.38 47.5618C140.205 46.2679 144.229 46.8835 146.267 50.7861C148.046 54.1879 148.618 57.3079 149.657 65.9896C149.657 65.9896 135.734 66.1044 132.084 69.7461C132.084 69.7461 132.261 62.0766 129.224 54.6157C128.933 53.8539 128.902 53.2279 128.964 52.5705Z" fill="#D7A444"/>
<path d="M119.938 38.713C122.101 42.8869 131.719 48.1565 134.381 47.7808C134.953 47.6974 129.702 55.7113 129.556 55.4295C128.829 54.0522 128.277 53.4991 127.102 52.6122C123.276 49.7217 118.066 45.8504 116.548 41.6869L119.938 38.713Z" fill="#D7A444"/>
<path d="M136.492 47.0922C136.492 47.0922 145.185 41.6452 144.655 31.6904C144.624 31.0852 145.113 30.5843 145.716 30.5948L147.619 30.6574C147.962 30.6678 148.263 30.9182 148.336 31.2626C148.71 33.0887 149.553 39.0574 146.756 47.4156C146.464 48.2713 145.83 49.6382 146.891 52.0591L136.492 47.0922Z" fill="#D7A444"/>
<path d="M132.094 69.746C132.26 70.5912 136.295 70.2991 141.172 69.3182C146.049 68.3373 149.823 66.8347 149.667 65.979C149.501 65.1338 145.175 64.4347 140.298 65.4156C135.421 66.3964 131.938 68.8904 132.094 69.746Z" fill="#2F1A31"/>
<path d="M143.085 82.7896C144.468 78.1774 140.839 73.1687 140.891 70.0696C140.891 70.0696 140.819 67.1478 142.118 66.9913C146.392 66.4696 149.501 66.407 149.501 66.407C149.595 66.5322 155.241 75.5896 151.436 86.0139C149.397 91.5652 142.68 84.1252 143.085 82.7896Z" fill="#9BBCB6"/>
<path d="M133.373 82.393C135.92 78.313 132.187 73.1686 133.05 70.1947C133.05 70.1947 134.433 68.4313 139.591 67.1165C146.381 65.3843 149.491 66.3965 149.491 66.3965C149.543 66.5321 147.328 76.7999 141.92 85.4921C141.473 86.2121 141.057 87.026 140.569 87.7147C137.148 92.5251 132.635 83.5825 133.373 82.393Z" fill="#9BBCB6"/>
<path d="M141.931 85.5443C141.921 85.5443 141.91 85.5443 141.9 85.5338C141.869 85.5234 141.869 85.4817 141.879 85.4608C141.91 85.4086 145.03 79.7738 145.134 71.1547C145.134 71.1234 145.165 71.1025 145.186 71.1025C145.217 71.1025 145.238 71.1234 145.238 71.1547C145.186 75.673 144.302 79.3356 143.564 81.6208C142.774 84.0938 141.973 85.5025 141.973 85.5234C141.962 85.5338 141.952 85.5443 141.931 85.5443Z" fill="#2F1A31"/>
<path d="M135.151 46.4139L134.995 44.7339L134.953 44.2435L134.693 41.3739L135.837 43.8678L136.524 45.36L136.742 45.8295C136.888 46.153 137.168 46.4765 137.522 46.6643C137.667 46.7374 138.531 46.8417 137.948 47.4469C137.22 48.2087 135.317 48.2922 134.371 47.7808C134.381 47.7704 135.203 46.9565 135.151 46.4139Z" fill="#F7B686"/>
<path d="M136.326 39.5686C136.326 39.5686 136.742 40.1216 136.898 40.9564C137.054 41.8017 135.494 40.2156 135.494 40.2156L136.326 39.5686Z" fill="#56335B"/>
<path d="M137.085 41.1443C136.274 39.7251 134.673 39.1304 133.498 39.7982C132.333 40.4764 132.042 42.1669 132.842 43.5756C133.653 44.9947 135.255 45.5895 136.43 44.9217C137.605 44.2538 137.896 42.5634 137.085 41.1443Z" fill="#F7B686"/>
<path d="M132.468 42.8348L133.519 42.2713C133.747 42.1461 133.914 41.9269 133.966 41.6661C134.049 41.2174 134.236 40.9252 135.276 40.5495C136.586 40.0695 137.127 38.9426 136.981 38.2017C136.836 37.4504 135.983 37.2521 135.474 37.8574C134.964 38.4521 134.902 37.5339 134.247 37.7008C133.02 38.0243 133.165 39.0156 132.198 39.3808C130.929 39.8608 129.079 41.7391 131.054 43.513L132.468 42.8348Z" fill="#2F1A31"/>
<path d="M135.037 42.2086C135.047 42.1982 135.047 42.1773 135.047 42.1669C135.037 42.146 135.016 42.1252 134.985 42.1356C134.974 42.1356 134.6 42.2191 134.579 42.6573C134.579 42.6886 134.6 42.7095 134.621 42.7095C134.652 42.7095 134.662 42.6886 134.673 42.6678C134.756 42.4069 134.995 42.2399 135.005 42.2399C135.016 42.2191 135.026 42.2191 135.037 42.2086Z" fill="#060633"/>
<path d="M135.078 42.8765C135.151 42.9704 135.266 43.0017 135.328 42.9495C135.401 42.8973 135.39 42.7825 135.318 42.6886C135.245 42.5947 135.13 42.5634 135.068 42.6156C135.006 42.6678 135.006 42.7825 135.078 42.8765Z" fill="#060633"/>
<path d="M136.67 41.3739C136.68 41.3635 136.691 41.353 136.68 41.3426C136.68 41.3217 136.66 41.2904 136.639 41.2904C136.628 41.2904 136.306 41.1861 136.192 41.5409C136.181 41.5617 136.192 41.593 136.212 41.6035C136.233 41.6139 136.254 41.6035 136.264 41.593C136.389 41.4157 136.618 41.3843 136.639 41.3843C136.66 41.3739 136.67 41.3739 136.67 41.3739Z" fill="#060633"/>
<path d="M136.451 42.0105C136.482 42.1252 136.576 42.1983 136.659 42.1774C136.742 42.1565 136.784 42.0418 136.752 41.927C136.721 41.8122 136.628 41.7392 136.544 41.76C136.461 41.7913 136.42 41.8957 136.451 42.0105Z" fill="#060633"/>
<path d="M131.055 43.5026C131.055 43.5026 132.479 44.8279 133.602 44.5044C133.602 44.5044 132.23 43.6174 133.738 42.1044C133.738 42.1044 131.949 42.5322 131.055 43.5026Z" fill="#56335B"/>
<path d="M132.926 43.7844C133.217 43.8365 133.487 43.6696 133.529 43.4087C133.57 43.1478 133.373 42.8974 133.092 42.8452C132.801 42.7931 132.531 42.96 132.489 43.2209C132.447 43.4818 132.645 43.7322 132.926 43.7844Z" fill="#F7B686"/>
<path d="M133.737 42.1044C133.737 42.1044 134.153 43.5339 134.538 43.68C134.923 43.8261 136.805 43.1792 137.522 42.4905C137.897 43.367 137.595 44.4 136.794 44.9009C136.524 45.0679 136.233 45.1931 135.921 45.2557C135.276 45.4018 134.59 45.3913 134.112 44.9322C133.966 44.7965 133.758 43.6592 133.758 43.6592C133.758 43.6592 133.592 43.0122 133.103 42.8348C133.092 42.8452 133.352 42.3026 133.737 42.1044Z" fill="#56335B"/>
<path d="M137.272 43.1687C137.272 43.1687 136.648 43.6487 135.848 43.8991C135.848 43.8991 136.253 44.567 136.971 44.1078C137.387 43.8261 137.272 43.1687 137.272 43.1687Z" fill="white"/>
<path d="M135.099 37.8364C134.891 37.8364 134.787 37.659 134.787 37.6486L134.85 37.6173C134.85 37.6277 134.985 37.8573 135.276 37.7217L135.307 37.7843C135.224 37.826 135.161 37.8364 135.099 37.8364Z" fill="#2F1A31"/>
<path d="M135.484 40.0278L135.463 39.9965C135.473 39.986 136.68 39.0052 136.451 38.2747C136.388 38.066 136.295 37.9513 136.18 37.9095C135.993 37.8469 135.775 38.0139 135.577 38.1495C135.546 38.1704 135.515 38.1913 135.484 38.2121L135.463 38.1808C135.494 38.1599 135.525 38.1391 135.546 38.1182C135.754 37.9721 135.983 37.8052 136.18 37.8678C136.305 37.9095 136.399 38.0347 136.472 38.2539C136.576 38.5669 136.43 38.9739 136.066 39.4226C135.796 39.7773 135.484 40.0278 135.484 40.0278Z" fill="white"/>
<path d="M131.761 39.8504L131.751 39.8191C132.489 39.6208 132.926 39.2556 133.165 38.9739C133.425 38.6713 133.508 38.4208 133.508 38.4104L133.54 38.4208C133.54 38.4313 133.456 38.6921 133.196 38.9948C132.957 39.2765 132.51 39.6521 131.761 39.8504Z" fill="white"/>
<path d="M118.991 41.1339C117.9 42.3548 116.922 42.1669 116.548 41.6974C116.173 41.2278 116.662 40.2156 117.64 39.433C118.617 38.6504 119.563 38.2435 119.938 38.7235C120.312 39.1826 119.823 40.1948 118.991 41.1339Z" fill="#2F1A31"/>
<path d="M119.813 36.553L119.668 36.5113C119.397 36.4382 119.127 36.6052 119.064 36.8661L118.95 37.3148L117.775 34.6852C117.671 34.4556 117.39 34.2678 117.141 34.2678C116.933 34.2678 116.787 34.4869 116.87 34.6852L117.661 36.4487C117.588 36.4591 117.505 36.48 117.432 36.5008L116.413 34.2156C116.33 34.0174 116.101 33.9026 115.903 33.9756C115.674 34.0487 115.56 34.32 115.654 34.5391L116.642 36.7513C116.569 36.7826 116.496 36.8035 116.423 36.8348L115.622 35.0295C115.539 34.8313 115.311 34.7165 115.113 34.7895C114.884 34.8626 114.77 35.1339 114.863 35.353L115.685 37.2C115.612 37.2417 115.55 37.2835 115.498 37.3148L114.811 35.7808C114.718 35.5722 114.479 35.4782 114.271 35.5722C114.063 35.6661 113.969 35.9061 114.063 36.1148L115.165 38.5774C115.487 39.5061 116.267 40.2782 116.704 40.6539C116.912 40.8313 117.203 40.8939 117.463 40.8209C117.941 40.6852 118.721 40.32 119.428 39.3391C119.522 39.2139 119.584 39.0782 119.626 38.9217L120.167 37.1374C120.239 36.8974 120.073 36.6156 119.813 36.553Z" fill="#F7B686"/>
<path d="M197.874 38.4104C198.124 38.4521 198.363 38.2956 198.405 38.0452L199.112 34.2051C199.153 33.9547 198.998 33.7147 198.748 33.673C198.498 33.6312 198.259 33.7878 198.218 34.0382L197.511 37.8782C197.459 38.1182 197.625 38.3582 197.874 38.4104Z" fill="#F7B686"/>
<path d="M196.721 38.1913C196.97 38.233 197.21 38.0765 197.251 37.8261L198.042 33.5269C198.083 33.2765 197.927 33.0365 197.678 32.9948C197.428 32.953 197.189 33.1095 197.147 33.36L196.357 37.6591C196.315 37.9095 196.482 38.1495 196.721 38.1913Z" fill="#F7B686"/>
<path d="M196.003 40.3721L196.149 40.2991C196.419 40.153 196.523 39.8191 196.377 39.5478L194.984 36.9287C194.838 36.6573 194.506 36.553 194.235 36.6991L194.09 36.7721C193.819 36.9182 193.715 37.2521 193.861 37.5234L195.254 40.1426C195.4 40.4139 195.733 40.5182 196.003 40.3721Z" fill="#F7B686"/>
<path d="M195.577 37.9826C195.826 38.0243 196.065 37.8678 196.107 37.6174L196.741 34.1739C196.783 33.9235 196.627 33.6835 196.377 33.6417C196.128 33.6 195.889 33.7565 195.847 34.0069L195.213 37.4504C195.161 37.6904 195.327 37.9409 195.577 37.9826Z" fill="#F7B686"/>
<path d="M198.249 40.7478C198.249 40.7478 199.954 38.7651 199.6 36.9391C199.476 36.3025 196.075 35.7704 195.649 36.3547C195.223 36.9391 195.015 39.3078 195.015 39.3078L198.249 40.7478Z" fill="#F7B686"/>
<path d="M199.019 38.6191C199.269 38.6608 199.508 38.5043 199.549 38.2539L200.184 34.8104C200.225 34.5599 200.069 34.3199 199.82 34.2782C199.57 34.2365 199.331 34.393 199.289 34.6434L198.655 38.0869C198.603 38.3373 198.769 38.5773 199.019 38.6191Z" fill="#F7B686"/>
<path d="M194.495 38.7443C192.249 43.3356 188.672 49.7425 184.367 54.2608C183.369 55.3043 182.973 55.6904 182.308 56.2121C181.767 56.6295 181.902 58.0591 182.61 58.9982C183.275 59.8747 184.45 60.1773 185.188 59.7912C185.739 59.5095 186.239 59.0817 187.362 57.9338C191.292 53.9477 194.911 48.2399 198.467 40.4451L194.495 38.7443Z" fill="#F7B686"/>
<path d="M180.883 115.628C180.883 115.628 181.008 117.099 182.027 117.454C183.046 117.809 185.947 117.997 184.928 119.019C184.346 119.603 181.414 119.437 180.592 119.489C179.771 119.541 179.022 119.948 178.377 119.437C177.67 118.873 178.148 115.816 178.148 115.816C178.148 115.816 178.876 116.139 179.521 116.087C180.446 115.983 180.883 115.628 180.883 115.628Z" fill="#2F1A31"/>
<path d="M169.476 116.348C169.476 116.348 169.601 117.819 170.62 118.174C171.639 118.529 174.54 118.717 173.521 119.739C172.939 120.323 170.006 120.157 169.185 120.209C168.363 120.261 167.615 120.668 166.97 120.157C166.263 119.593 166.741 116.536 166.741 116.536C166.741 116.536 167.469 116.859 168.103 116.807C169.039 116.703 169.476 116.348 169.476 116.348Z" fill="#2F1A31"/>
<path d="M185.729 74.7965C185.729 74.7965 186.301 80.953 185.084 92.9009C184.2 101.53 183.077 110.233 182.516 114.407C182.318 115.899 181.143 117.057 179.687 117.203L178.897 117.287C177.316 117.454 175.944 116.17 175.954 114.532L176.193 86.5043L176.11 77.2904L185.729 74.7965Z" fill="#9BBCB6"/>
<path d="M168.821 80.5669C168.873 81.3182 173.105 81.4748 178.315 81.12C183.535 80.7652 187.663 80.2643 187.611 79.5026C187.559 78.7513 183.358 78.0209 178.138 78.3756C172.928 78.7409 168.769 79.8156 168.821 80.5669Z" fill="white"/>
<path d="M181.965 80.306L171.255 115.889C170.891 117.412 169.612 118.518 168.093 118.633L167.428 118.685C165.858 118.81 164.568 117.433 164.755 115.826L169.32 80.9425C169.383 80.5356 170.766 80.2643 171.161 80.2121C174.426 79.7321 182.079 78.8138 181.965 80.306Z" fill="#9BBCB6"/>
<path d="M185.126 60.9287C186.373 57.36 183.649 54.6887 183.649 54.6887C183.649 54.6887 180.342 56.1705 178.231 56.5879C174.862 57.2661 171.077 55.68 171.077 55.68C171.077 55.68 167.302 58.8522 169.673 61.7009C170.068 62.1809 170.048 64.3618 170.016 64.6852C169.143 73.1479 168.831 80.5044 168.831 80.5044C179.219 76.9252 187.632 79.5026 187.632 79.5026C187.725 71.927 185.937 64.8939 185.126 60.9287Z" fill="#96A7E2"/>
<path d="M176.058 100.226L175.871 100.195L177.857 88.3617C178.304 86.64 179.344 85.1791 180.79 84.2191L180.894 84.3756C179.49 85.3043 178.471 86.7339 178.034 88.4035L176.058 100.226Z" fill="#020202"/>
<path d="M180.437 55.4399L180.416 55.3773C180.426 55.3773 181.082 55.1791 181.258 54.7199C181.342 54.4799 181.29 54.1982 181.082 53.906C180.988 53.7599 180.894 53.6347 180.822 53.5199C180.27 52.706 180.062 52.4034 180.166 51.7147L180.229 51.7252C180.114 52.393 180.312 52.6643 180.874 53.4782C180.957 53.593 181.04 53.7286 181.134 53.8643C181.352 54.1878 181.414 54.4799 181.31 54.7408C181.134 55.2312 180.468 55.4295 180.437 55.4399Z" fill="#D7A444"/>
<path d="M180.197 51.7147C180.197 51.7147 180.01 52.7791 180.749 53.8538C181.497 54.9286 180.769 55.7634 179.802 55.3877C178.846 55.0016 178.534 56.2225 177.296 55.6069C176.069 54.9912 180.197 51.7147 180.197 51.7147Z" fill="#D7A444"/>
<path d="M174.821 56.6191C175.341 56.5356 175.778 56.1913 175.965 55.7009L176.547 54.1565L176.714 53.7078L177.712 51.0782L177.629 53.76L177.577 55.3774L177.566 55.8365C177.556 56.2122 177.826 56.5356 178.201 56.5774H178.211C178.419 56.8904 178.72 57.5374 177.92 57.8296C176.984 58.1843 175.403 57.4956 174.821 56.6191C174.811 56.6191 174.821 56.6191 174.821 56.6191Z" fill="#F7B686"/>
<path d="M176.547 54.1147C176.547 54.1251 176.547 54.146 176.547 54.1565C176.651 55.0121 177.587 55.3773 177.587 55.3773H177.598L177.65 53.7599C177.369 53.666 176.963 53.5825 176.724 53.7078C176.599 53.7808 176.527 53.906 176.547 54.1147Z" fill="#2F1A31"/>
<path d="M180.364 51.4017C180.292 49.6904 179.106 48.3443 177.723 48.4069C176.34 48.4695 175.279 49.8991 175.352 51.6208C175.425 53.3321 176.61 54.6782 177.993 54.6156C179.376 54.553 180.437 53.113 180.364 51.4017Z" fill="#F7B686"/>
<path d="M175.705 52.0695C175.997 52.3303 176.402 52.3408 176.6 52.0903C176.797 51.8399 176.714 51.4329 176.423 51.1721C176.132 50.9112 175.726 50.9008 175.529 51.1512C175.331 51.3912 175.414 51.8086 175.705 52.0695Z" fill="#F7B686"/>
<path d="M179.293 53.4574C179.293 53.4574 178.44 53.5095 177.567 53.2487C177.567 53.2487 177.535 54.0939 178.461 54.1147C179.002 54.1252 179.293 53.4574 179.293 53.4574Z" fill="#DB6B49"/>
<path d="M179.293 53.4574C179.293 53.4574 179.095 53.6347 178.606 53.6556C178.118 53.6765 177.566 53.2487 177.566 53.2487C177.566 53.2487 178.617 53.4887 179.293 53.4574Z" fill="white"/>
<path d="M178.107 51.5269C178.128 51.5165 178.138 51.5061 178.149 51.4956C178.159 51.4643 178.149 51.433 178.117 51.4226C178.097 51.4122 177.712 51.2348 177.389 51.6209C177.369 51.6417 177.369 51.6835 177.4 51.7043C177.421 51.7252 177.452 51.7148 177.483 51.6939C177.733 51.5061 178.076 51.5269 178.086 51.5269C178.076 51.5269 178.086 51.5269 178.107 51.5269Z" fill="#060633"/>
<path d="M177.681 52.1739C177.681 52.3095 177.764 52.4243 177.857 52.4243C177.961 52.4243 178.034 52.3095 178.034 52.1739C178.034 52.0382 177.951 51.9235 177.857 51.9235C177.753 51.9235 177.681 52.0382 177.681 52.1739Z" fill="#060633"/>
<path d="M180.156 51.7357C180.177 51.7357 180.187 51.7357 180.208 51.7148C180.229 51.6939 180.229 51.6522 180.208 51.6313C180.198 51.6209 179.896 51.2974 179.459 51.5374C179.428 51.5478 179.418 51.5896 179.439 51.6104C179.449 51.6417 179.48 51.6417 179.511 51.6313C179.813 51.5583 180.125 51.7044 180.135 51.7148C180.125 51.7357 180.135 51.7357 180.156 51.7357Z" fill="#060633"/>
<path d="M179.511 52.1738C179.459 52.299 179.491 52.4347 179.584 52.466C179.678 52.5077 179.792 52.4347 179.844 52.299C179.896 52.1738 179.865 52.0382 179.771 52.0069C179.678 51.9756 179.563 52.0486 179.511 52.1738Z" fill="#060633"/>
<path d="M178.814 48.9182C178.814 48.9182 178.804 49.993 177.473 50.2434C176.142 50.4834 175.237 51.0886 175.466 52.0591C175.685 53.0191 177.931 54.9391 176.381 55.7843C174.821 56.6295 175.102 55.1686 173.397 55.5756C171.691 55.9825 171.286 53.6973 172.409 52.2991C173.542 50.9112 172.908 47.3843 177.359 47.353C181.809 47.3217 180.333 50.953 180.333 50.953C180.333 50.953 178.866 50.1078 178.814 48.9182Z" fill="#D7A444"/>
<path d="M175.923 55.993L175.913 55.9617C176.235 55.8156 176.423 55.6174 176.475 55.3565C176.631 54.6469 175.757 53.593 174.977 52.6748C174.769 52.4243 174.582 52.1948 174.405 51.9756C173.927 51.36 173.854 50.5982 174.218 49.993C174.624 49.3252 175.435 49.0121 176.339 49.1791C177.213 49.3461 177.795 49.1374 178.138 48.9391C178.502 48.72 178.669 48.4591 178.669 48.4591L178.7 48.48C178.689 48.4904 178.534 48.7513 178.159 48.9704C177.816 49.1791 177.223 49.3878 176.339 49.2208C175.456 49.0539 174.655 49.3565 174.26 50.0139C173.896 50.6087 173.968 51.3391 174.447 51.9548C174.624 52.1739 174.811 52.4035 175.019 52.6539C175.799 53.5826 176.683 54.6365 176.516 55.3669C176.454 55.6382 176.256 55.8469 175.923 55.993Z" fill="white"/>
<path d="M180.062 53.7808C179.927 53.7913 179.802 53.76 179.677 53.6869C179.126 53.3739 178.877 52.3617 179.126 51.4434C179.282 50.88 179.594 50.4417 179.969 50.2956C180.187 50.2017 180.416 50.2121 180.624 50.3374C181.175 50.6504 181.424 51.6521 181.175 52.5808C181.019 53.1443 180.707 53.5826 180.332 53.7391C180.239 53.7495 180.156 53.7704 180.062 53.7808ZM179.23 51.4643C178.991 52.3408 179.22 53.2904 179.729 53.5826C179.906 53.6765 180.093 53.6869 180.28 53.6139C180.624 53.4678 180.904 53.0713 181.05 52.5287C181.289 51.6521 181.071 50.7026 180.551 50.4104C180.374 50.3165 180.187 50.3061 180 50.3791C179.667 50.5252 179.376 50.9321 179.23 51.4643Z" fill="white"/>
<g opacity="0.3">
<path opacity="0.3" d="M176.194 50.9739C176.027 51.8712 176.391 52.8104 177.005 53.0712C177.618 53.3321 178.242 52.8208 178.409 51.9234C178.575 51.026 178.211 50.0869 177.597 49.826C176.984 49.5652 176.36 50.0765 176.194 50.9739Z" fill="white"/>
</g>
<g opacity="0.3">
<path opacity="0.3" d="M179.105 51.5164C178.939 52.4138 179.251 53.3738 179.802 53.6451C180.343 53.9268 180.925 53.4155 181.091 52.5182C181.258 51.6208 180.946 50.6608 180.395 50.3895C179.844 50.1077 179.272 50.6086 179.105 51.5164Z" fill="white"/>
</g>
<path d="M177.432 53.1548C177.297 53.1652 177.161 53.1339 177.026 53.0817C176.35 52.8 175.955 51.7982 176.132 50.8382C176.236 50.2852 176.506 49.8469 176.891 49.6382C177.151 49.4921 177.432 49.4817 177.702 49.5965C178.378 49.8782 178.773 50.8904 178.596 51.84C178.492 52.393 178.212 52.8313 177.837 53.04C177.713 53.113 177.577 53.1548 177.432 53.1548ZM177.307 49.6278C177.182 49.6382 177.057 49.6695 176.943 49.7321C176.6 49.92 176.34 50.3374 176.246 50.8487C176.08 51.7565 176.444 52.7061 177.078 52.9669C177.317 53.0608 177.567 53.0504 177.796 52.9356C178.139 52.7478 178.399 52.3304 178.503 51.8191C178.669 50.9113 178.305 49.9617 177.671 49.7008C177.546 49.6487 177.432 49.6278 177.307 49.6278Z" fill="white"/>
<path d="M179.241 51.84C179.22 51.84 179.189 51.8295 179.178 51.8191C179.168 51.8087 178.887 51.6104 178.43 51.7147C178.378 51.7252 178.315 51.6939 178.305 51.6417C178.294 51.5895 178.326 51.5269 178.378 51.5165C178.939 51.3704 179.293 51.6417 179.303 51.6521C179.345 51.6834 179.355 51.7565 179.324 51.7982C179.293 51.8191 179.261 51.84 179.241 51.84Z" fill="white"/>
<path d="M171.348 80.1808C171.348 80.1808 178.335 78.5634 185.334 79.6591C185.656 79.7112 185.885 79.993 185.874 80.3165L185.791 82.9147L178.46 81.5686L171.348 80.1808Z" fill="#9BBCB6"/>
<path d="M172.304 58.6226C172.252 60.2922 171.368 61.6278 170.328 61.5861C169.289 61.5548 168.498 60.1669 168.55 58.4974C168.602 56.8278 169.486 55.4922 170.526 55.5339C171.556 55.5652 172.356 56.953 172.304 58.6226Z" fill="#2F1A31"/>
<path d="M154.565 40.0278C154.326 40.0905 154.066 39.9444 154.004 39.7044L152.995 35.927C152.933 35.687 153.078 35.4261 153.317 35.3635C153.556 35.3009 153.816 35.447 153.879 35.687L154.887 39.4644C154.95 39.7148 154.804 39.9652 154.565 40.0278Z" fill="#F7B686"/>
<path d="M155.687 39.7252C155.448 39.7878 155.188 39.6417 155.126 39.4017L154.003 35.1756C153.94 34.9356 154.086 34.6748 154.325 34.6122C154.564 34.5495 154.824 34.6956 154.887 34.9356L156.01 39.1617C156.082 39.4017 155.937 39.6626 155.687 39.7252Z" fill="#F7B686"/>
<path d="M156.582 41.8435L156.437 41.7809C156.156 41.6557 156.031 41.3322 156.156 41.0505L157.331 38.327C157.456 38.0452 157.778 37.92 158.059 38.0452L158.204 38.1079C158.485 38.2331 158.61 38.5565 158.485 38.8383L157.31 41.5618C157.185 41.8331 156.863 41.9583 156.582 41.8435Z" fill="#F7B686"/>
<path d="M156.821 39.4226C156.582 39.4853 156.322 39.3392 156.26 39.0992L155.355 35.7079C155.293 35.4679 155.438 35.207 155.678 35.1444C155.917 35.0818 156.177 35.2279 156.239 35.4679L157.144 38.8592C157.206 39.0992 157.061 39.36 156.821 39.4226Z" fill="#F7B686"/>
<path d="M154.367 42.386C154.367 42.386 152.506 40.5495 152.713 38.7026C152.786 38.066 156.135 37.2626 156.603 37.8052C157.07 38.3478 157.466 40.6956 157.466 40.6956L154.367 42.386Z" fill="#F7B686"/>
<path d="M153.442 40.3304C153.202 40.393 152.953 40.2469 152.88 40.0069L151.975 36.6261C151.913 36.3861 152.059 36.1356 152.298 36.0626C152.537 36 152.786 36.1461 152.859 36.3861L153.764 39.7669C153.826 40.0174 153.681 40.2678 153.442 40.3304Z" fill="#F7B686"/>
<path d="M157.954 40.1008C160.543 44.4939 164.609 50.6087 169.268 54.7721C170.349 55.7321 170.765 56.0869 171.472 56.5565C172.044 56.9321 172.023 58.3721 171.389 59.353C170.796 60.2713 169.642 60.6782 168.873 60.3443C168.301 60.1043 167.77 59.7182 166.554 58.6643C162.322 55.0017 158.266 49.5965 154.117 42.1043L157.954 40.1008Z" fill="#F7B686"/>
<path d="M165.255 87.2765C162.811 91.4713 155.74 95.8121 151.56 93.3704C147.379 90.9182 147.681 82.6017 150.125 78.4069C152.568 74.2121 157.934 72.793 162.114 75.2452C166.294 77.6869 167.698 83.0817 165.255 87.2765Z" fill="#436E8E"/>
<path d="M151.112 93.0678C151.112 93.0678 148.908 93.5895 149.22 94.1322C149.532 94.6852 150.208 94.5287 150.291 95.0608C150.374 95.5826 150.727 95.7495 151.123 95.6869C151.518 95.6243 151.663 96.1669 151.996 95.8122C152.339 95.4678 152.682 93.8504 152.048 93.3182C151.414 92.7756 151.112 93.0678 151.112 93.0678Z" fill="#436E8E"/>
<path d="M165.14 81.2035C165.483 79.8261 164.547 77.8435 162.54 77.4574C160.533 77.0713 162.124 79.127 162.145 80.6609C162.166 82.1843 164.828 82.4557 165.14 81.2035Z" fill="#B7C8F7"/>
<path d="M146.059 97.0017C145.716 97.0017 145.321 96.8556 144.957 96.5739C144.135 95.9373 143.782 94.8939 144.01 93.7878C144.031 93.6939 144.062 93.5999 144.094 93.506C143.293 93.4017 142.388 93.5686 141.681 94.2782L141.608 94.2052C142.347 93.4643 143.293 93.2869 144.125 93.4017C144.27 93.0991 144.499 92.8486 144.822 92.6608C145.612 92.2017 146.912 92.1286 148.69 92.4208C150.01 92.6399 151.113 93.0052 151.123 93.0052L151.092 93.0991C151.05 93.0886 146.704 91.6695 144.863 92.7339C144.572 92.9008 144.354 93.1304 144.218 93.4017C144.499 93.4434 144.77 93.5269 145.009 93.6208C146.142 94.0904 146.922 95.0399 146.922 95.9791C146.922 96.5321 146.672 96.7721 146.465 96.8765C146.35 96.9704 146.215 97.0017 146.059 97.0017ZM144.187 93.5165C144.156 93.6104 144.125 93.7043 144.104 93.7982C143.886 94.873 144.218 95.8747 145.019 96.4904C145.508 96.866 146.08 97.0017 146.444 96.8139C146.714 96.6782 146.849 96.3965 146.849 95.9999C146.839 95.0921 146.101 94.1843 144.998 93.7356C144.738 93.6417 144.468 93.5582 144.187 93.5165Z" fill="white"/>
<path d="M152.329 93.7252C152.329 93.7252 150.904 92.5461 150.738 92.88C150.572 93.2139 150.863 93.1304 151.268 93.4643C151.664 93.7983 152.755 94.3513 152.329 93.7252Z" fill="#D7A444"/>
<path d="M147.786 167.781C190.18 167.781 224.548 163.515 224.548 158.254C224.548 152.992 190.18 148.727 147.786 148.727C105.391 148.727 71.0234 152.992 71.0234 158.254C71.0234 163.515 105.391 167.781 147.786 167.781Z" fill="#BED5DC"/>
<path d="M192.821 156.501C192.821 156.501 189.462 153.026 190.616 151.043C191.771 149.061 193.726 155.29 193.726 155.29C193.726 155.29 192.717 147.923 194.807 147.798C196.908 147.673 194.807 155.29 194.807 155.29C194.807 155.29 195.587 153.517 196.346 153.402C197.105 153.287 196.887 154.904 195.535 156.49H192.821V156.501Z" fill="#BED5DC"/>
<path d="M193.06 156.584C193.05 156.574 192.093 155.572 191.303 154.31C190.232 152.588 189.972 151.221 190.544 150.25C190.752 149.885 191.012 149.718 191.303 149.75C191.896 149.812 192.551 150.72 193.331 152.504C193.559 153.037 193.767 153.579 193.934 154.017C193.747 152.087 193.539 148.237 194.589 146.953C194.818 146.671 195.088 146.525 195.41 146.504C195.722 146.483 195.972 146.598 196.169 146.838C197.116 148.007 196.263 152.191 195.795 154.153C196.149 153.579 196.637 152.943 197.147 152.87C197.386 152.838 197.573 152.922 197.688 153.12C198 153.684 197.573 155.134 196.336 156.574L196.149 156.407C197.365 154.988 197.698 153.652 197.469 153.235C197.407 153.13 197.324 153.089 197.188 153.11C196.533 153.204 195.774 154.633 195.546 155.176L195.317 155.092C195.317 155.071 195.785 153.391 196.086 151.555C196.492 149.144 196.461 147.569 195.993 146.995C195.847 146.817 195.67 146.744 195.442 146.755C195.192 146.765 194.984 146.89 194.797 147.11C193.466 148.737 194.318 155.05 194.329 155.113L194.09 155.165C193.653 153.767 192.291 150.104 191.303 149.99C191.116 149.969 190.949 150.094 190.783 150.365C189.535 152.504 193.227 156.365 193.268 156.397L193.06 156.584Z" fill="#42428E"/>
<path d="M195.681 84.5114V142.299L195.493 142.362L188.859 144.564L187.819 144.908L186.8 145.252L179.75 147.59L173.126 149.791L172.076 150.136L171.057 150.48L164.526 152.65L157.892 154.852L156.852 155.197L155.833 155.541L149.293 157.711L143.563 159.61L141.722 155.75L139.58 151.273L137.49 146.901L118.253 106.591L127.736 103.878L128.766 103.586L129.827 103.284L136.523 101.374L143.126 99.4957L144.156 99.2035L145.206 98.9009L151.903 96.9913L158.506 95.1027L159.535 94.8105L160.585 94.5079L167.282 92.6087L174.405 90.574L175.435 90.2818L176.485 89.9792L183.181 88.0696L189.421 86.2957L190.45 85.9931L191.5 85.7009L195.681 84.5114Z" fill="#D7A444"/>
<path d="M118.253 106.591L93.2549 92.6818L123.14 145.565L143.563 159.61L118.253 106.591Z" fill="#D7A444"/>
<path d="M149.292 157.711L143.563 159.61L141.722 155.75L129.826 103.283L136.523 101.374L149.292 157.711Z" fill="#C18A30"/>
<path d="M139.58 151.273L137.49 146.901L127.736 103.878L128.766 103.586L139.58 151.273Z" fill="#C18A30"/>
<path d="M164.527 152.65L157.892 154.852L145.206 98.9009L151.903 96.9913L164.527 152.65Z" fill="#C18A30"/>
<path d="M156.852 155.197L144.155 99.2035L143.126 99.4957L155.833 155.541L156.852 155.197Z" fill="#C18A30"/>
<path d="M179.75 147.59L173.127 149.791L160.586 94.5079L167.283 92.6088L179.75 147.59Z" fill="#C18A30"/>
<path d="M172.076 150.136L171.057 150.48L158.506 95.1027L159.535 94.8105L172.076 150.136Z" fill="#C18A30"/>
<path d="M195.494 142.362L188.86 144.564L176.485 89.9791L183.182 88.0696L195.494 142.362Z" fill="#C18A30"/>
<path d="M187.819 144.908L186.8 145.252L174.405 90.5739L175.435 90.2817L187.819 144.908Z" fill="#C18A30"/>
<path d="M195.681 84.5114V104.097L191.501 85.7009L195.681 84.5114Z" fill="#C18A30"/>
<path d="M195.681 109.043V113.885L189.421 86.2957L190.45 85.993L195.681 109.043Z" fill="#C18A30"/>
<path d="M121.134 164.348C121.134 164.348 118.129 161.249 119.158 159.475C120.188 157.711 121.935 163.273 121.935 163.273C121.935 163.273 121.03 156.689 122.902 156.574C124.773 156.459 122.902 163.273 122.902 163.273C122.902 163.273 123.598 161.687 124.274 161.583C124.95 161.489 124.763 162.929 123.546 164.348H121.134Z" fill="#BED5DC"/>
<path d="M121.352 164.431C121.342 164.421 120.479 163.534 119.782 162.407C118.825 160.873 118.596 159.652 119.106 158.776C119.293 158.452 119.522 158.296 119.782 158.327C120.666 158.431 121.633 160.748 122.132 162.136C122.08 161.583 122.028 160.852 122.007 160.09C121.945 157.909 122.184 156.48 122.714 155.833C122.912 155.583 123.161 155.447 123.442 155.436C123.723 155.416 123.952 155.52 124.118 155.729C124.96 156.783 124.201 160.508 123.785 162.261C124.097 161.749 124.534 161.186 124.992 161.113C125.21 161.082 125.376 161.165 125.47 161.343C125.751 161.843 125.376 163.137 124.264 164.431L124.097 164.285C125.189 163.012 125.48 161.823 125.272 161.447C125.22 161.353 125.137 161.322 125.023 161.332C124.44 161.416 123.765 162.699 123.546 163.179L123.338 163.106C123.338 163.096 123.754 161.593 124.024 159.944C124.388 157.795 124.357 156.386 123.941 155.864C123.816 155.708 123.65 155.635 123.453 155.645C123.234 155.656 123.037 155.76 122.881 155.969C121.695 157.419 122.454 163.064 122.454 163.116L122.236 163.169C121.841 161.916 120.635 158.65 119.751 158.546C119.584 158.525 119.428 158.64 119.293 158.88C118.18 160.789 121.477 164.233 121.508 164.275L121.352 164.431Z" fill="#42428E"/>
<path d="M101.626 157.116C101.626 157.116 100.046 155.489 100.586 154.56C101.127 153.631 102.042 156.553 102.042 156.553C102.042 156.553 101.564 153.089 102.552 153.036C103.54 152.974 102.552 156.553 102.552 156.553C102.552 156.553 102.916 155.718 103.269 155.666C103.623 155.614 103.519 156.376 102.884 157.116H101.626Z" fill="#BED5DC"/>
<path d="M101.73 157.158C101.657 157.085 99.9104 155.259 100.545 154.184C100.649 154.017 100.763 153.934 100.898 153.955C101.366 154.007 101.865 155.228 102.136 155.958C102.052 155.05 101.948 153.245 102.448 152.65C102.552 152.525 102.687 152.452 102.832 152.442C102.978 152.431 103.103 152.483 103.186 152.598C103.633 153.151 103.228 155.113 103.009 156.031C103.176 155.76 103.404 155.468 103.643 155.426C103.758 155.405 103.841 155.447 103.893 155.541C104.039 155.802 103.841 156.49 103.259 157.169L103.176 157.096C103.747 156.428 103.903 155.802 103.799 155.603C103.768 155.551 103.727 155.53 103.664 155.541C103.363 155.583 102.999 156.261 102.895 156.511L102.78 156.47C102.791 156.438 103.633 153.329 103.103 152.661C103.04 152.577 102.947 152.536 102.843 152.546C102.728 152.557 102.624 152.609 102.541 152.713C101.917 153.475 102.312 156.438 102.323 156.47L102.208 156.49C102 155.833 101.366 154.111 100.898 154.059C100.815 154.049 100.732 154.111 100.659 154.237C100.077 155.238 101.813 157.054 101.824 157.075L101.73 157.158Z" fill="#42428E"/>
<path d="M224.859 59.8539C220.461 65.3426 209.386 70.0592 203.906 65.6452C198.426 61.2313 200.631 49.367 205.029 43.8679C209.428 38.3792 217.435 37.5026 222.904 41.9061C228.384 46.3305 229.258 54.3548 224.859 59.8539Z" fill="#D7A444"/>
<path d="M203.335 65.1339C203.335 65.1339 200.059 65.4052 200.392 66.2609C200.725 67.1165 201.733 67.0435 201.733 67.8157C201.733 68.5879 202.212 68.9009 202.804 68.8905C203.387 68.8905 203.48 69.6835 204.042 69.2661C204.603 68.8487 205.446 66.5948 204.645 65.6974C203.834 64.7792 203.335 65.1339 203.335 65.1339Z" fill="#D7A444"/>
<path d="M225.983 51.12C226.762 49.2209 225.847 46.1635 223.061 45.1826C220.263 44.2018 222.114 47.4887 221.813 49.6904C221.511 51.8922 225.275 52.8522 225.983 51.12Z" fill="#F9A38F"/>
<path d="M195.473 69.7044C194.922 69.7044 194.288 69.3914 193.757 68.8383C192.718 67.7427 192.426 66.1775 192.998 64.6331C193.05 64.4975 193.102 64.3722 193.175 64.247C192.042 63.9235 190.711 63.9757 189.546 64.8418L189.463 64.727C190.68 63.8192 192.073 63.7775 193.248 64.1218C193.518 63.7148 193.903 63.4018 194.402 63.2035C195.629 62.7131 197.511 62.8801 200.007 63.694C201.858 64.2992 203.366 65.0505 203.376 65.0609L203.314 65.1862C203.303 65.1757 201.796 64.4244 199.965 63.8296C197.543 63.0366 195.64 62.8696 194.465 63.3392C194.007 63.5166 193.654 63.7983 193.404 64.1635C193.799 64.2888 194.163 64.4557 194.485 64.654C196.014 65.5722 196.919 67.0957 196.731 68.4418C196.617 69.2349 196.212 69.527 195.889 69.6314C195.744 69.6835 195.619 69.7044 195.473 69.7044ZM193.31 64.2888C193.238 64.414 193.175 64.5392 193.123 64.6748C192.572 66.167 192.853 67.6801 193.851 68.734C194.465 69.3809 195.255 69.6835 195.827 69.5062C196.232 69.3705 196.492 69.0053 196.575 68.4314C196.752 67.127 195.879 65.6662 194.392 64.7792C194.069 64.5809 193.705 64.414 193.31 64.2888Z" fill="white"/>
<path d="M204.936 66.3339C204.936 66.3339 203.148 64.3304 202.836 64.7791C202.534 65.2278 202.961 65.1548 203.47 65.7287C203.98 66.3026 205.415 67.3252 204.936 66.3339Z" fill="white"/>
<path d="M109.685 47.52C113.324 52.8626 114.499 63.8713 109.175 67.5235C103.851 71.1757 94.0558 66.073 90.4163 60.7409C86.7768 55.3983 88.139 48.1148 93.4631 44.4626C98.7871 40.8104 106.045 42.1774 109.685 47.52Z" fill="white"/>
<path d="M108.572 67.8886C108.572 67.8886 107.938 70.8417 108.77 70.7791C109.612 70.706 109.81 69.8086 110.486 70.0069C111.161 70.2052 111.557 69.8712 111.713 69.3495C111.869 68.8278 112.586 68.9739 112.368 68.3582C112.139 67.753 110.402 66.4069 109.404 66.8765C108.406 67.3565 108.572 67.8886 108.572 67.8886Z" fill="white"/>
<path d="M102.343 44.2018C100.888 43.0122 97.9761 43.0018 96.3747 45.2035C94.7733 47.4052 98.1424 46.6539 99.983 47.5096C101.824 48.3548 103.664 45.287 102.343 44.2018Z" fill="#93639E"/>
<path d="M104.527 80.0139C104.059 78.6992 104.392 77.4574 105.005 76.5183C104.714 76.1739 104.548 75.7461 104.506 75.2557C104.402 74.0453 105.057 72.4279 106.43 70.4452C107.449 68.9739 108.51 67.847 108.52 67.8365L108.614 67.9305C108.603 67.9409 107.543 69.0679 106.534 70.5287C105.193 72.4487 104.537 74.087 104.641 75.2452C104.683 75.6939 104.829 76.08 105.078 76.4035C105.297 76.0905 105.536 75.8192 105.796 75.5792C107.002 74.4731 108.582 74.0766 109.716 74.6087C110.381 74.9218 110.527 75.36 110.537 75.6731C110.548 76.2783 110.049 76.9253 109.269 77.3218C108.031 77.9479 106.586 77.7809 105.39 76.8731C105.286 76.7896 105.193 76.7061 105.099 76.6122C104.517 77.52 104.205 78.7096 104.652 79.9618L104.527 80.0139ZM105.172 76.4974C105.255 76.5913 105.359 76.6748 105.463 76.7583C106.617 77.6348 108.021 77.8018 109.206 77.1966C109.934 76.8209 110.413 76.2052 110.402 75.6626C110.392 75.2661 110.142 74.9426 109.653 74.7131C108.562 74.2122 107.043 74.5879 105.879 75.6626C105.629 75.9131 105.38 76.1844 105.172 76.4974Z" fill="white"/>
<path d="M110.06 66.8034C110.06 66.8034 107.834 67.8469 108.146 68.233C108.458 68.6191 108.51 68.2226 109.144 67.9304C109.768 67.6382 111.047 66.6365 110.06 66.8034Z" fill="#D7A444"/>
<path d="M221.864 81.6834C221.864 81.6834 224.37 81.3391 224.973 78.8139C224.973 78.8139 223.424 78.2295 222.894 78.5008C222.894 78.5008 222.145 80.7652 219.057 80.8069C219.057 80.7965 220.96 81.7356 221.864 81.6834Z" fill="#C96B55"/>
<path d="M214.481 79.5965C214.481 79.5965 216.738 82.633 221.864 81.6834C221.864 81.6834 217.892 80.8278 217.206 78.5321C217.206 78.5321 215.459 78.4799 214.481 79.5965Z" fill="#D7A444"/>
<path d="M162.219 72.2505C162.219 72.2505 164.579 73.1687 166.316 71.2279C166.316 71.2279 165.234 69.9653 164.652 69.9548C164.652 69.9548 162.905 71.5827 160.181 70.1218C160.181 70.1218 161.397 71.8644 162.219 72.2505Z" fill="#C96B55"/>
<path d="M156.749 66.8557C156.749 66.8557 157.269 70.6018 162.219 72.2505C162.219 72.2505 159.151 69.5896 159.64 67.2418C159.64 67.2418 158.132 66.3548 156.749 66.8557Z" fill="#D7A444"/>
<path d="M108.603 31.2731C108.603 31.2731 109.643 28.9566 107.823 27.1096C107.823 27.1096 106.502 28.1218 106.461 28.7061C106.461 28.7061 107.979 30.5531 106.367 33.1931C106.367 33.1931 108.166 32.0766 108.603 31.2731Z" fill="#C96B55"/>
<path d="M102.925 36.4487C102.925 36.4487 106.69 36.1461 108.603 31.2731C108.603 31.2731 105.774 34.1948 103.466 33.5687C103.476 33.5687 102.509 35.0296 102.925 36.4487Z" fill="#D7A444"/>
<path d="M76.9082 51.2869C76.9082 51.2869 76.9914 51.9756 77.9896 52.7165C77.9896 52.7165 78.6135 52.5808 78.8735 52.3721C79.1335 52.1634 79.5494 51.8087 79.4246 51.6626C79.2999 51.5165 78.8319 51.0678 78.5824 50.5565C78.3328 50.0452 78.0936 50.6817 77.5945 50.7652C77.1058 50.8487 76.8042 50.9739 76.9082 51.2869Z" fill="#436E8E"/>
<path d="M208.689 81.5374C208.689 81.5374 209.105 82.0904 210.342 82.2261C210.342 82.2261 210.821 81.7983 210.935 81.4852C211.049 81.1826 211.237 80.6609 211.06 80.5983C210.883 80.5357 210.249 80.3791 209.781 80.0557C209.313 79.7322 209.417 80.4104 209.032 80.7235C208.647 81.047 208.45 81.3183 208.689 81.5374Z" fill="#D7A444"/>
<path d="M187.321 29.6243C187.321 29.6243 187.737 30.1774 188.974 30.313C188.974 30.313 189.453 29.8852 189.567 29.5721C189.681 29.2695 189.868 28.7478 189.692 28.6852C189.515 28.6226 188.881 28.4661 188.413 28.1426C187.945 27.8191 188.049 28.4974 187.664 28.8104C187.279 29.1339 187.082 29.4052 187.321 29.6243Z" fill="#D7A444"/>
<path d="M213.889 72.313C213.889 72.313 214.575 72.4278 215.563 71.6661C215.563 71.6661 215.615 71.0296 215.49 70.727C215.366 70.4243 215.137 69.913 214.971 69.9965C214.794 70.0696 214.232 70.4035 213.671 70.4974C213.109 70.5913 213.65 71.0087 213.588 71.4991C213.525 71.9896 213.567 72.3235 213.889 72.313Z" fill="#9BBCB6"/>
<path d="M80.3608 59.7287C80.3608 59.7287 81.0471 59.8435 82.0349 59.0817C82.0349 59.0817 82.0869 58.4452 81.9622 58.1426C81.8374 57.84 81.6086 57.3287 81.4422 57.4122C81.2655 57.4852 80.7039 57.8191 80.1424 57.913C79.5809 58.0069 80.1216 58.4243 80.0592 58.9148C79.9968 59.4052 80.0384 59.7391 80.3608 59.7287Z" fill="#9BBCB6"/>
<path d="M164.131 66.7304C164.131 66.7304 164.818 66.8452 165.805 66.0834C165.805 66.0834 165.857 65.4469 165.733 65.1443C165.608 64.8417 165.379 64.3304 165.213 64.4139C165.036 64.4869 164.474 64.8208 163.913 64.9147C163.351 65.0087 163.892 65.4261 163.83 65.9165C163.767 66.4174 163.809 66.7513 164.131 66.7304Z" fill="#9BBCB6"/>
<path d="M182.672 36.9704C182.672 36.9704 183.359 37.0852 184.346 36.3234C184.346 36.3234 184.398 35.6869 184.274 35.3843C184.149 35.0817 183.92 34.5704 183.754 34.6539C183.577 34.7269 183.015 35.0608 182.454 35.1547C181.892 35.2486 182.433 35.666 182.371 36.1565C182.308 36.6469 182.35 36.9808 182.672 36.9704Z" fill="#9BBCB6"/>
<path d="M58.2637 116.473L85.903 79.8469L138.52 92.7443L116.579 141.339L58.2637 116.473Z" fill="#E6E8B8"/>
<path d="M116.579 141.339L116.901 155.301L59.7923 131.123L58.2637 116.473L116.579 141.339Z" fill="#CFD3A3"/>
<path d="M138.52 92.7444L141.078 101.677L116.901 155.301L116.579 141.339L138.52 92.7444Z" fill="#CFD3A3"/>
<path d="M116.579 141.402C116.569 141.402 116.558 141.402 116.558 141.402L58.2431 116.536C58.2119 116.525 58.2015 116.484 58.2119 116.452C58.2223 116.421 58.2639 116.4 58.2951 116.421L116.558 141.256L138.468 92.7131C138.478 92.6818 138.52 92.6713 138.551 92.6818C138.582 92.6922 138.593 92.7339 138.582 92.7652L116.652 141.36C116.631 141.391 116.61 141.402 116.579 141.402Z" fill="#436E8E"/>
<path d="M116.902 155.363C116.87 155.363 116.839 155.332 116.839 155.301L116.527 141.339C116.527 141.308 116.559 141.276 116.59 141.276C116.621 141.276 116.652 141.308 116.652 141.339L116.964 155.301C116.964 155.332 116.933 155.363 116.902 155.363Z" fill="#436E8E"/>
<path d="M128.111 130.424L125.657 121.231L70.2432 100.602L75.952 93.0365L127.633 115.304L131.73 122.421L128.111 130.424Z" fill="#9BBCB6"/>
<path d="M107.251 85.0748L79.8721 125.687L80.4128 139.857L90.4474 144.104L88.1181 129.204L117.931 87.694L107.251 85.0748Z" fill="#9BBCB6"/>
<path d="M100.149 108.939C100.149 108.939 101.802 96.5948 97.778 86.0974C92.1627 71.4574 81.1923 65.2591 75.8058 67.44C65.5736 71.5826 67.1958 72.5635 56.1838 74.0869C45.1717 75.6104 49.1231 88.3617 56.2253 91.1165C73.7781 97.9304 84.9046 103.743 94.3672 108.188C96.6653 109.263 100.149 108.939 100.149 108.939Z" fill="#D7A444"/>
<path d="M73.6431 75.1409C71.0331 75.1409 68.4854 74.6922 66.1249 74.2852C65.2203 74.1287 64.3572 73.9722 63.5253 73.8574C60.8737 73.4713 58.0349 73.92 58.0141 73.92C57.9517 73.9304 57.8997 73.8887 57.8893 73.8365C57.8789 73.7739 57.9205 73.7218 57.9725 73.7113C58.0037 73.7113 60.8633 73.2522 63.5461 73.6383C64.3884 73.7635 65.2411 73.9096 66.1561 74.0661C70.2532 74.7861 74.8909 75.5896 79.4143 74.0035C79.4663 73.9826 79.5287 74.0139 79.5495 74.0661C79.5703 74.1183 79.5391 74.1809 79.4871 74.2017C77.5322 74.9009 75.5668 75.1409 73.6431 75.1409Z" fill="white"/>
<path d="M94.378 108.292C94.3468 108.292 94.3156 108.282 94.2948 108.25C94.2428 108.177 88.5548 101.249 81.2758 94.1009C77.002 89.8957 73.0401 86.4417 69.4734 83.833C65.0228 80.567 61.2066 78.6157 58.1286 78.0313C55.0402 77.447 52.8565 77.927 51.6295 79.4817C50.9224 80.3791 50.5585 81.6313 50.5793 83.1026C50.6 84.3757 50.9016 85.7426 51.4319 86.9635C51.4527 87.0157 51.4319 87.0783 51.3799 87.0991C51.3279 87.12 51.2656 87.0991 51.2448 87.047C50.704 85.8052 50.3921 84.407 50.3817 83.113C50.3609 81.5896 50.7352 80.2852 51.4839 79.3565C52.7629 77.7391 55.0194 77.2278 58.191 77.833C61.3002 78.4278 65.1476 80.3896 69.619 83.6661C73.1857 86.2852 77.1684 89.7496 81.4422 93.9548C88.7211 101.113 94.4195 108.052 94.4715 108.125C94.5131 108.167 94.5027 108.24 94.4611 108.271C94.4195 108.282 94.3988 108.292 94.378 108.292Z" fill="white"/>
<path d="M96.7178 108.657C96.7178 108.657 101.886 87.8713 113.875 88.2574C113.875 88.2574 118.295 87.7461 119.106 92.2852C119.907 96.8244 124.336 94.5183 125.751 99.3183C127.165 104.118 124.721 108.177 115.758 107.551C106.794 106.936 103.602 109.764 103.602 109.764C103.602 109.764 101.865 110.859 99.3694 110.421C96.8114 109.983 96.7178 108.657 96.7178 108.657Z" fill="#D7A444"/>
<path d="M101.636 109.169C101.626 109.169 101.605 109.169 101.595 109.158C101.543 109.137 101.512 109.075 101.543 109.023C101.564 108.981 103.477 104.671 110.839 101.823C113.803 100.675 116.974 99.934 119.553 99.7983C122.381 99.6522 124.253 100.247 124.835 101.478C125.21 102.271 125.179 103.117 124.752 103.92C123.952 105.423 121.851 106.55 119.127 106.957C119.064 106.967 119.012 106.925 119.002 106.863C118.991 106.8 119.033 106.748 119.095 106.737C121.747 106.351 123.796 105.256 124.565 103.816C124.96 103.075 124.991 102.292 124.648 101.562C124.108 100.414 122.309 99.8609 119.574 100.007C117.026 100.143 113.875 100.873 110.933 102.021C103.664 104.849 101.771 109.064 101.761 109.117C101.709 109.137 101.678 109.169 101.636 109.169Z" fill="white"/>
<path d="M121.643 95.5722C121.643 95.5722 121.632 95.5722 121.643 95.5722C116.516 95.2905 113.521 92.2331 113.49 92.2018C113.449 92.1601 113.449 92.0975 113.49 92.0557C113.532 92.014 113.594 92.014 113.636 92.0557C113.667 92.087 116.61 95.0818 121.643 95.3635C121.705 95.3635 121.747 95.4157 121.747 95.4783C121.747 95.5305 121.695 95.5722 121.643 95.5722Z" fill="white"/>
<path d="M96.7183 108.762C96.7079 108.762 96.7079 108.762 96.6975 108.762C96.6351 108.751 96.6039 108.699 96.6143 108.636C96.6247 108.574 97.9141 102.042 100.306 99.0365C100.337 98.9948 100.41 98.9843 100.451 99.0156C100.493 99.0469 100.503 99.12 100.472 99.1617C98.1221 102.136 96.843 108.605 96.8222 108.678C96.8118 108.73 96.7703 108.762 96.7183 108.762Z" fill="white"/>
<path d="M207.494 90.6261C207.494 90.6261 207.328 92.5461 209.782 93.0052C212.246 93.4643 211.747 94.8522 211.258 95.593C210.769 96.3339 214.055 94.8835 217.102 97.6278C220.149 100.372 215.626 103.054 213.172 102.72C210.707 102.376 201.38 100.31 200.932 99.6C200.475 98.8904 199.851 96.9496 201.088 96.6783C203.314 96.2087 200.6 94.4661 202.045 93.6835C203.49 92.9113 207.494 90.6261 207.494 90.6261Z" fill="#2F1A31"/>
<path d="M192.666 100.184C190.867 98.8382 189.463 96.72 188.506 93.8817C187.778 91.7426 187.581 89.9374 187.57 89.8643L191.751 89.3113L189.66 89.593L191.751 89.3113C191.927 90.8556 192.926 95.2487 195.421 96.9182C196.555 97.68 198.686 98.5982 200.361 98.1182L200.932 102.219C198.083 103.043 195.182 101.906 193.04 100.466C192.915 100.362 192.79 100.268 192.666 100.184Z" fill="#EAA97D"/>
<path d="M187.737 88.32C187.497 88.3513 187.279 88.1948 187.237 87.9548L186.738 84.6261C186.707 84.3861 186.863 84.1669 187.102 84.1252C187.341 84.0939 187.56 84.2504 187.601 84.4904L188.101 87.8087C188.142 88.0591 187.976 88.2782 187.737 88.32Z" fill="#EAA97D"/>
<path d="M188.838 88.1426C188.599 88.1739 188.37 88.0174 188.339 87.7774L187.788 84.0626C187.757 83.8226 187.913 83.593 188.152 83.5617C188.391 83.5304 188.62 83.6869 188.651 83.9269L189.202 87.6417C189.244 87.8817 189.078 88.1113 188.838 88.1426Z" fill="#EAA97D"/>
<path d="M189.951 87.9756C189.712 88.0069 189.483 87.84 189.452 87.6104L188.828 83.4574C188.797 83.2174 188.953 82.9878 189.192 82.9565C189.431 82.9252 189.66 83.0817 189.691 83.3217L190.315 87.4748C190.357 87.7148 190.19 87.9443 189.951 87.9756Z" fill="#EAA97D"/>
<path d="M190.576 90.0939L190.44 90.0208C190.191 89.8747 190.097 89.5512 190.243 89.2904L191.657 86.8173C191.803 86.5669 192.125 86.473 192.385 86.6191L192.52 86.7025C192.77 86.8486 192.863 87.1721 192.718 87.433L191.304 89.906C191.148 90.1565 190.825 90.2399 190.576 90.0939Z" fill="#EAA97D"/>
<path d="M191.054 87.8086C190.815 87.8399 190.586 87.6834 190.555 87.4434L190.056 84.1147C190.025 83.8747 190.181 83.6451 190.42 83.6138C190.659 83.5825 190.888 83.7391 190.919 83.9791L191.418 87.3078C191.46 87.5478 191.293 87.7773 191.054 87.8086Z" fill="#EAA97D"/>
<path d="M187.56 89.8539C187.56 89.8539 186.936 87.2243 187.217 86.6817C187.508 86.1391 190.638 85.68 191.033 86.2434C191.429 86.8173 191.751 89.2904 191.751 89.2904L187.56 89.8539Z" fill="#EAA97D"/>
<path d="M189.598 89.833C189.566 89.833 189.546 89.8121 189.535 89.7808C189.535 89.7704 189.39 89.0817 189.961 88.7374C190.481 88.4243 191.001 87.7774 191.001 87.7669C191.022 87.7356 191.064 87.7356 191.084 87.7565C191.116 87.7774 191.116 87.8191 191.095 87.84C191.074 87.8713 190.565 88.5078 190.013 88.8417C189.514 89.1443 189.639 89.7391 189.65 89.7495C189.66 89.7808 189.639 89.8121 189.598 89.8226C189.608 89.833 189.608 89.833 189.598 89.833Z" fill="#E08B65"/>
<path d="M207.899 152.525C207.899 152.525 207.619 155.791 207.047 156.657C206.475 157.523 204.385 159.36 205.747 159.537C206.527 159.642 208.659 157.805 209.303 157.356C209.958 156.918 210.832 156.803 210.957 156.021C211.019 155.656 210.447 155.05 210.27 154.372C209.979 153.214 210 151.92 210 151.92C210 151.92 209.137 150.709 208.627 151.033C207.879 151.513 207.899 152.525 207.899 152.525Z" fill="#2F1A31"/>
<path d="M229.175 130.779C229.175 130.779 232.399 130.257 233.376 130.602C234.354 130.946 236.641 132.532 236.475 131.165C236.381 130.383 234.094 128.755 233.501 128.233C232.919 127.701 232.596 126.887 231.806 126.95C231.432 126.981 230.995 127.68 230.381 128.014C229.331 128.577 228.083 128.88 228.083 128.88C228.083 128.88 227.116 130.017 227.563 130.435C228.198 131.04 229.175 130.779 229.175 130.779Z" fill="#2F1A31"/>
<path d="M199.955 121.21C200.194 123.913 200.61 127.419 201.327 131.687C202.679 139.868 204.281 148.111 205.071 152.066C205.352 153.485 206.537 154.518 207.941 154.57L208.7 154.602C210.218 154.664 211.456 153.35 211.341 151.795L209.438 125.05L209.178 120.261C209.168 120.261 199.549 116.734 199.955 121.21Z" fill="#9BBCB6"/>
<path d="M217.008 118.476C216.925 119.603 213.088 121.367 208.097 120.96C203.116 120.553 199.175 119.916 199.258 118.79C199.341 117.663 203.418 116.473 208.398 116.88C213.379 117.287 217.092 117.35 217.008 118.476Z" fill="#2F1A31"/>
<path d="M203.542 119.478L210.467 134.546C211.549 136.894 214.045 138.23 216.582 137.833C218.006 137.614 218.963 136.247 218.682 134.828L215.656 119.332C215.573 118.946 214.232 118.779 213.857 118.748C210.707 118.477 203.344 118.059 203.542 119.478Z" fill="#9BBCB6"/>
<path d="M211.008 100.257C211.008 100.257 208.731 96.7095 203.885 98.0243C201.597 98.6504 198.759 98.5669 198.561 102.918C198.384 106.821 198.041 111.37 199.258 118.8C199.258 118.8 207.088 115.732 217.008 118.487C216.977 118.059 216.488 107.05 214.159 101.103C213.483 99.3808 211.767 101.384 211.008 100.257Z" fill="#CFD3A3"/>
<path d="M216.551 99.9966L212.35 104.004C212.35 104.004 199.581 105.506 198.5 103.284C196.711 99.6105 198.479 97.2939 198.479 97.2939C198.479 97.2939 202.43 97.7322 205.706 97.6279C206.454 97.607 207.848 97.6383 208.586 97.6696C213.692 97.8783 216.551 99.9966 216.551 99.9966Z" fill="#CFD3A3"/>
<path d="M216.551 99.9965C216.914 100.414 216.831 101.791 215.407 103.002C213.972 104.212 212.807 104.619 212.35 104.003C212.006 103.544 212.422 101.718 213.795 100.591C215.199 99.433 216.291 99.7043 216.551 99.9965Z" fill="#2F1A31"/>
<path d="M213.671 118.727C213.671 118.727 206.902 117.6 200.288 119.071C199.987 119.134 199.779 119.426 199.81 119.729L200.049 122.202L206.974 120.469L213.671 118.727Z" fill="#9BBCB6"/>
<path d="M207.639 97.6278C206.974 98.7025 205.123 99.6104 203.969 99.2452C202.991 98.9321 203.667 97.6278 203.667 97.6278C204.104 97.5443 204.312 97.2834 204.281 96.8347L204.239 96.2817L204.218 96.0104L204.156 95.1338L204.104 94.3512L203.875 91.1373L205.206 94.2365L205.435 94.7582L206.215 96.5738C206.464 97.1686 207.005 97.5652 207.639 97.6278Z" fill="#F7B686"/>
<path d="M205.435 94.7791C205.435 94.7791 205.05 95.8016 204.228 96.0208L204.166 95.1443C204.676 94.9564 205.435 94.7791 205.435 94.7791Z" fill="#2F1A31"/>
<path d="M207.494 90.6261C207.494 90.6261 207.369 91.1478 207.67 92.2331C208.107 93.8087 206.308 94.4765 205.851 94.0174C205.799 93.9652 205.872 91.2731 205.872 91.2731L206.443 90.9287L207.494 90.6261Z" fill="#2F1A31"/>
<path d="M200.734 91.6696C200.734 89.6139 202.076 87.9443 203.74 87.9443C205.403 87.9443 206.745 89.6139 206.745 91.6696C206.745 93.7252 205.403 95.3948 203.74 95.3948C202.076 95.3843 200.734 93.7252 200.734 91.6696Z" fill="#F7B686"/>
<path d="M202.544 88.8104C202.628 88.9251 202.16 90.8347 205.685 91.2938C209.22 91.753 207.099 87.4434 204.489 87.3495C200.725 87.2138 200.174 89.7495 200.537 90.6678C200.901 91.5756 202.544 88.8104 202.544 88.8104Z" fill="#2F1A31"/>
<path d="M205.3 90.6887C205.3 90.6887 206.745 92.2122 206.246 93.7774C206.246 93.7774 207.088 92.8592 207.099 92.5148C207.12 92.1705 206.891 90.9392 206.891 90.9392L205.3 90.6887Z" fill="#2F1A31"/>
<path d="M206.34 92.2226C205.996 92.5461 205.518 92.5774 205.279 92.2957C205.029 92.0139 205.113 91.5131 205.445 91.1896C205.788 90.8661 206.267 90.8348 206.506 91.1166C206.755 91.4087 206.683 91.8992 206.34 92.2226Z" fill="#F7B686"/>
<path d="M203.449 91.7009C203.428 91.6904 203.407 91.68 203.407 91.6591C203.397 91.6278 203.407 91.5861 203.449 91.5652C203.469 91.5548 203.927 91.3148 204.333 91.7635C204.353 91.7948 204.353 91.8365 204.333 91.8574C204.301 91.8782 204.27 91.8782 204.239 91.8574C203.927 91.6487 203.521 91.6904 203.501 91.6904C203.48 91.7009 203.459 91.7009 203.449 91.7009Z" fill="#060633"/>
<path d="M204.166 92.4313C204.176 92.5983 204.083 92.7339 203.958 92.7339C203.844 92.7339 203.74 92.6087 203.729 92.4418C203.719 92.2748 203.812 92.1392 203.937 92.1392C204.062 92.1392 204.166 92.2644 204.166 92.4313Z" fill="#060633"/>
<path d="M201.005 92.0556C200.984 92.0556 200.963 92.0556 200.943 92.0348C200.911 92.0035 200.922 91.9617 200.943 91.9409C200.963 91.9304 201.296 91.5339 201.837 91.7843C201.868 91.8052 201.889 91.8365 201.868 91.8783C201.858 91.9096 201.816 91.92 201.774 91.9096C201.4 91.8365 201.047 92.0243 201.036 92.0348C201.036 92.0556 201.026 92.0556 201.005 92.0556Z" fill="#060633"/>
<path d="M202.004 92.4417C202.066 92.5878 202.035 92.7548 201.931 92.7965C201.827 92.8487 201.681 92.7652 201.619 92.6191C201.557 92.473 201.588 92.3061 201.692 92.2643C201.796 92.2017 201.941 92.2852 202.004 92.4417Z" fill="#060633"/>
<path d="M211.383 95.3217L211.299 95.1548C211.414 95.0817 211.684 94.2469 211.476 93.5687C211.289 92.9634 210.8 92.6504 210.01 92.6504C207.67 92.64 207.296 90.72 207.296 90.7095L207.483 90.6782C207.493 90.7513 207.837 92.4626 210.01 92.4626C211.175 92.4626 211.559 93.0991 211.684 93.6313C211.861 94.3513 211.59 95.2278 211.383 95.3217Z" fill="#2F1A31"/>
<path d="M215.802 137.896C218.641 137.823 225.389 135.057 229.133 133.419C230.589 132.783 231.254 131.092 230.63 129.621L230.547 129.433C230.027 128.212 228.758 127.503 227.459 127.68L214.575 129.454C214.575 129.475 210.509 138.031 215.802 137.896Z" fill="#9BBCB6"/>
<path d="M209.802 133.315C209.781 133.263 207.691 127.607 207.036 125.833C206.391 124.09 204.364 122.682 204.343 122.671L204.447 122.525C204.53 122.588 206.537 123.976 207.202 125.781C207.857 127.555 209.948 133.21 209.968 133.263L209.802 133.315Z" fill="#020202"/>
<path d="M202.19 93.9026C202.19 93.9026 202.471 94.5391 203.064 94.5391C203.792 94.5391 203.937 93.7773 203.937 93.7773C203.937 93.7773 203.043 94.08 202.19 93.9026Z" fill="white"/>
<path d="M220.742 106.675C222.977 106.424 225.255 105.308 227.511 103.346C229.217 101.864 230.298 100.414 230.35 100.351L227.022 97.7531L228.686 99.0574L227.022 97.7531C226.087 99.0052 223.019 102.271 220.024 102.449C218.735 102.522 217.549 102.01 216.416 100.883C216.25 100.717 216.01 100.633 215.771 100.675C215.314 100.737 214.523 101.04 213.452 102.146C212.704 102.918 213.234 103.67 213.234 103.67C215.283 105.819 217.716 106.883 220.295 106.727C220.44 106.706 220.596 106.696 220.742 106.675Z" fill="#EAA97D"/>
<path d="M230.973 98.9425C231.161 99.099 231.441 99.0677 231.587 98.8799L233.687 96.2608C233.843 96.073 233.812 95.7912 233.625 95.6451C233.438 95.4886 233.157 95.5199 233.011 95.7077L230.911 98.3269C230.765 98.5147 230.786 98.7964 230.973 98.9425Z" fill="#EAA97D"/>
<path d="M230.111 98.2434C230.298 98.3999 230.578 98.3686 230.724 98.1808L233.074 95.2591C233.23 95.0713 233.199 94.7895 233.012 94.6434C232.825 94.4869 232.544 94.5182 232.398 94.706L230.048 97.6278C229.892 97.8052 229.923 98.0869 230.111 98.2434Z" fill="#EAA97D"/>
<path d="M229.237 97.5339C229.425 97.6905 229.705 97.6592 229.851 97.4713L232.482 94.2052C232.638 94.0174 232.607 93.7357 232.419 93.5896C232.232 93.4331 231.951 93.4644 231.806 93.6522L229.175 96.9183C229.019 97.1061 229.05 97.3774 229.237 97.5339Z" fill="#EAA97D"/>
<path d="M227.636 99.0469H227.792C228.083 99.0469 228.322 98.8069 228.322 98.5148L228.343 95.6661C228.343 95.3739 228.104 95.1339 227.813 95.1339H227.657C227.365 95.1339 227.126 95.3739 227.126 95.6661L227.105 98.5148C227.105 98.7965 227.345 99.0365 227.636 99.0469Z" fill="#EAA97D"/>
<path d="M228.363 96.8243C228.551 96.9809 228.831 96.9496 228.977 96.7617L231.088 94.1426C231.244 93.9548 231.213 93.6731 231.026 93.527C230.838 93.3705 230.558 93.4018 230.412 93.5896L228.301 96.2087C228.145 96.3965 228.176 96.6678 228.363 96.8243Z" fill="#EAA97D"/>
<path d="M230.35 100.362C230.35 100.362 232.211 98.4104 232.242 97.7948C232.274 97.1791 229.799 95.1965 229.175 95.4887C228.551 95.7808 227.022 97.753 227.022 97.753L230.35 100.362Z" fill="#EAA97D"/>
<path d="M228.635 99.3183C228.624 99.3183 228.603 99.3078 228.593 99.2974C228.572 99.2765 228.562 99.2348 228.593 99.2139C228.614 99.1931 229.009 98.7548 228.728 98.2435C228.427 97.6904 228.312 96.8661 228.302 96.8348C228.302 96.8035 228.323 96.7722 228.354 96.7617C228.385 96.7617 228.416 96.7826 228.427 96.8139C228.427 96.8243 228.541 97.6383 228.842 98.1809C229.165 98.7652 228.687 99.287 228.687 99.2974C228.666 99.3078 228.655 99.3183 228.635 99.3183Z" fill="#E08B65"/>
<path d="M179.48 155.186C179.48 155.186 182.797 157.398 184.263 158.108C185.73 158.817 190.045 159.621 188.35 160.967C187.373 161.739 183.005 160.967 181.768 160.894C180.53 160.821 179.335 161.301 178.461 160.424C177.494 159.454 176.132 155.196 176.132 155.196L179.48 155.186Z" fill="#2F1A31"/>
<path d="M158.465 141.203C158.465 141.203 165.505 143.812 173.085 148.696C176.288 150.762 178.42 152.191 179.813 153.151C180.967 153.944 180.894 155.677 179.688 156.376L177.608 157.576C176.87 158.004 175.986 158.108 175.165 157.868L157.633 152.755L158.465 141.203Z" fill="#355E77"/>
<path d="M165.951 113.802C162.416 117.777 156.801 123.214 151.217 126.543C149.917 127.315 149.418 127.586 148.596 127.93C147.941 128.202 147.671 129.673 148.118 130.81C148.544 131.875 149.636 132.511 150.489 132.334C151.123 132.198 151.737 131.917 153.192 131.082C158.256 128.181 163.487 123.464 169.227 116.64L165.951 113.802Z" fill="#F7B686"/>
<path d="M169.726 115.252C169.934 115.419 170.246 115.377 170.412 115.169L172.71 112.216C172.877 112.007 172.835 111.694 172.627 111.527C172.419 111.36 172.107 111.402 171.941 111.61L169.643 114.563C169.476 114.783 169.518 115.085 169.726 115.252Z" fill="#F7B686"/>
<path d="M168.748 114.48C168.956 114.647 169.268 114.605 169.435 114.397L172.003 111.089C172.169 110.88 172.128 110.567 171.92 110.4C171.712 110.233 171.4 110.275 171.234 110.483L168.665 113.791C168.499 114.01 168.54 114.323 168.748 114.48Z" fill="#F7B686"/>
<path d="M167.761 113.718C167.969 113.885 168.281 113.844 168.447 113.635L171.317 109.941C171.484 109.732 171.442 109.419 171.234 109.252C171.026 109.085 170.714 109.127 170.548 109.336L167.678 113.03C167.511 113.238 167.553 113.551 167.761 113.718Z" fill="#F7B686"/>
<path d="M166.003 115.43H166.18C166.502 115.43 166.773 115.158 166.762 114.835L166.731 111.652C166.731 111.329 166.461 111.057 166.138 111.068H165.962C165.639 111.068 165.369 111.339 165.379 111.663L165.41 114.845C165.41 115.169 165.681 115.43 166.003 115.43Z" fill="#F7B686"/>
<path d="M166.773 112.946C166.981 113.113 167.293 113.071 167.459 112.863L169.757 109.899C169.924 109.69 169.882 109.377 169.674 109.21C169.466 109.043 169.154 109.085 168.988 109.294L166.69 112.257C166.523 112.466 166.565 112.779 166.773 112.946Z" fill="#F7B686"/>
<path d="M169.061 116.849C169.061 116.849 171.099 114.636 171.12 113.948C171.141 113.259 168.343 111.089 167.657 111.433C166.96 111.777 165.557 113.927 165.557 113.927L169.061 116.849Z" fill="#F7B686"/>
<path d="M167.21 115.638C167.199 115.638 167.179 115.638 167.168 115.617C167.147 115.596 167.137 115.555 167.168 115.534C167.189 115.513 167.574 115.064 167.293 114.563C166.981 114.01 166.846 113.196 166.846 113.165C166.835 113.134 166.867 113.103 166.898 113.092C166.929 113.082 166.96 113.113 166.971 113.144C166.971 113.155 167.106 113.969 167.407 114.501C167.74 115.085 167.272 115.607 167.272 115.617C167.241 115.628 167.231 115.638 167.21 115.638Z" fill="#E08B65"/>
<path d="M169.404 158.744C169.404 158.744 169.342 160.977 170.808 161.687C172.274 162.396 176.59 163.2 174.895 164.546C173.917 165.318 169.55 164.546 168.312 164.473C167.075 164.4 165.879 164.88 164.995 164.003C164.028 163.033 165.297 158.525 165.297 158.525C165.297 158.525 166.337 159.141 167.304 159.172C168.676 159.203 169.404 158.744 169.404 158.744Z" fill="#2F1A31"/>
<path d="M137.574 156.021C137.678 156.887 142.555 156.783 148.524 156.021C154.492 155.259 159.141 153.965 159.037 153.099C158.933 152.233 154.118 152.129 148.149 152.89C142.181 153.642 137.47 155.155 137.574 156.021Z" fill="#2F1A31"/>
<path d="M139.571 132.365C139.571 132.365 141.276 128.15 147.307 127.795C156.51 127.252 157.914 135.976 159.037 153.099C159.037 153.099 148.399 153.068 136.805 158.15C136.815 158.15 129.152 147.892 139.571 132.365Z" fill="#9BBCB6"/>
<path d="M135.91 130.957L139.602 134.817C139.602 134.817 152.028 134.661 154.357 132.814C158.121 129.85 152.87 125.04 152.87 125.04C152.87 125.04 150.749 126.125 145.165 127.117C139.206 128.191 135.91 130.957 135.91 130.957Z" fill="#9BBCB6"/>
<path d="M141.889 135.83C141.463 136.362 139.768 135.704 138.125 134.358C136.472 133.012 135.484 131.489 135.921 130.967C136.347 130.435 138.032 131.092 139.685 132.438C141.328 133.774 142.316 135.297 141.889 135.83Z" fill="#060633"/>
<path d="M136.274 155.551C136.077 151.753 138.707 149.332 142.087 147.631C147.577 144.866 154.711 141.527 159.037 141.203C164.933 140.765 170.132 153.756 170.475 159.548C170.558 160.894 165.369 162.344 164.017 161.144C162.655 159.934 157.872 153.715 157.872 153.715C157.872 153.715 151.331 162.052 145.55 162.052C141.047 162.052 136.565 161.155 136.274 155.551Z" fill="#436E8E"/>
<path d="M135.827 146.035C133.934 145.21 132.936 143.144 132.843 141.193C132.728 138.678 133.019 136.758 134.527 134.129C135.494 132.428 136.004 131.666 136.17 131.593C137.044 131.186 138.395 131.948 138.895 132.292C139.602 132.772 141.182 134.066 140.59 135.172C140.579 135.183 140.319 135.861 139.602 137.134C138.759 138.637 138.666 139.795 138.967 140.108C139.373 140.525 141.307 140.337 143.148 139.064C145.092 137.718 146.6 136.049 146.621 136.028L149.844 139.68C149.771 139.763 148.742 141.569 146.579 143.739C144.936 145.367 139.81 147.767 135.827 146.035Z" fill="#F7B686"/>
<path d="M143.928 126.595L143.865 124.696L143.844 124.08L143.72 120.48L144.957 123.683L145.706 125.603L145.914 126.156C146.091 126.605 146.569 126.845 147.026 126.72H147.037C147.442 126.981 147.39 127.951 146.798 128.306C145.695 128.963 144.219 128.316 143.096 127.586C143.085 127.586 143.948 127.263 143.928 126.595Z" fill="#F7B686"/>
<path d="M143.834 124.643C143.844 124.664 143.855 124.675 143.865 124.696C144.406 125.656 145.695 125.624 145.695 125.624V125.614L144.947 123.694C144.562 123.725 144.042 123.829 143.834 124.09C143.73 124.226 143.709 124.403 143.834 124.643Z" fill="#2F1A31"/>
<path d="M146.985 119.541C146.049 117.558 143.99 116.567 142.389 117.329C140.788 118.09 140.247 120.313 141.183 122.296C142.119 124.278 144.178 125.27 145.779 124.508C147.38 123.746 147.921 121.523 146.985 119.541Z" fill="#F7B686"/>
<path d="M146.995 124.08C146.964 124.08 146.933 124.059 146.933 124.028C146.933 123.996 146.953 123.965 146.985 123.955C146.995 123.955 147.91 123.84 148.409 123.12C148.565 122.89 148.617 122.703 148.565 122.546C148.492 122.327 148.232 122.254 148.232 122.254C148.201 122.243 148.18 122.212 148.191 122.181C148.201 122.15 148.232 122.129 148.264 122.139C148.274 122.139 148.586 122.233 148.68 122.504C148.752 122.703 148.69 122.932 148.513 123.193C147.983 123.965 147.037 124.08 146.995 124.08Z" fill="#D7A444"/>
<path d="M142.005 118.8C142.42 119.405 142.483 119.979 144.708 119.52C144.708 119.52 145.134 119.583 144.989 119.217C144.843 118.852 144.084 118.55 144.157 118.017C144.157 118.017 146.985 120.313 147.173 119.457C147.349 118.602 147.017 116.275 145.332 115.555C143.647 114.835 140.07 116.212 139.966 117.496C139.81 119.384 141.651 118.289 142.005 118.8Z" fill="#2F1A31"/>
<path d="M140.226 118.195C140.226 118.195 141.204 117.997 141.349 118.414C141.495 118.821 142.462 119.28 142.004 119.802C141.537 120.323 141.474 120.543 141.682 120.97C141.828 121.273 141.609 122.191 141.713 122.89C141.755 123.193 142.181 123.683 142.181 123.683C142.181 123.683 139.613 123.986 138.812 121.263C138.282 119.489 139.561 118.236 140.226 118.195Z" fill="#2F1A31"/>
<path d="M141.494 122.807C141.973 122.963 142.451 122.776 142.555 122.39C142.659 122.003 142.368 121.555 141.89 121.398C141.411 121.242 140.933 121.43 140.829 121.816C140.715 122.212 141.016 122.65 141.494 122.807Z" fill="#F7B686"/>
<path d="M142.212 125.457C141.827 125.457 141.401 125.144 141.276 124.727C141.037 123.965 141.38 123.203 141.401 123.172C141.421 123.141 141.453 123.12 141.494 123.141C141.525 123.162 141.546 123.193 141.525 123.235C141.525 123.245 141.182 123.986 141.411 124.696C141.536 125.082 141.962 125.374 142.305 125.322C142.638 125.27 142.825 124.904 142.815 124.289C142.804 123.642 142.617 123.141 142.253 122.859C141.983 122.65 141.723 122.63 141.713 122.63C141.671 122.63 141.65 122.598 141.65 122.557C141.65 122.515 141.681 122.494 141.723 122.494C141.733 122.494 142.929 122.609 142.95 124.289C142.96 125.249 142.513 125.426 142.326 125.457C142.284 125.457 142.243 125.457 142.212 125.457Z" fill="#D7A444"/>
<path d="M138.458 118.81C138.437 118.81 138.417 118.81 138.396 118.8C138.354 118.779 138.354 118.727 138.375 118.685C138.864 117.976 139.602 118.09 139.633 118.09C139.675 118.101 139.706 118.143 139.696 118.184C139.685 118.226 139.644 118.257 139.602 118.257C139.571 118.257 138.936 118.153 138.51 118.779C138.5 118.79 138.479 118.8 138.458 118.81Z" fill="#2F1A31"/>
<path d="M139.685 117.892C139.654 117.903 139.612 117.882 139.591 117.85C139.581 117.83 139.342 117.318 139.477 117.016C139.498 116.974 139.55 116.953 139.591 116.974C139.633 116.995 139.654 117.047 139.633 117.078C139.539 117.276 139.685 117.652 139.747 117.777C139.768 117.819 139.747 117.871 139.706 117.892C139.695 117.892 139.685 117.892 139.685 117.892Z" fill="#2F1A31"/>
<path d="M146.382 122.911C146.382 122.911 145.436 123.297 144.344 123.329C144.344 123.329 144.625 124.309 145.685 123.976C146.309 123.777 146.382 122.911 146.382 122.911Z" fill="#DB6B49"/>
<path d="M146.382 122.911C146.382 122.911 146.226 123.193 145.686 123.391C145.145 123.59 144.354 123.318 144.354 123.318C144.354 123.318 145.623 123.203 146.382 122.911Z" fill="white"/>
<path d="M144.022 121.252C144.043 121.242 144.053 121.221 144.053 121.2C144.053 121.158 144.022 121.127 143.991 121.127C143.97 121.127 143.46 121.064 143.231 121.628C143.221 121.659 143.231 121.701 143.263 121.722C143.294 121.742 143.325 121.711 143.356 121.68C143.575 121.367 143.97 121.262 143.98 121.262C143.991 121.262 144.011 121.262 144.022 121.252Z" fill="#060633"/>
<path d="M146.684 120.605C146.704 120.605 146.725 120.584 146.736 120.574C146.756 120.543 146.736 120.501 146.704 120.48C146.684 120.47 146.257 120.188 145.81 120.584C145.779 120.605 145.779 120.647 145.8 120.678C145.82 120.71 145.862 120.699 145.893 120.689C146.226 120.511 146.621 120.595 146.642 120.595C146.652 120.605 146.673 120.616 146.684 120.605Z" fill="#060633"/>
<path d="M147.381 122.984C147.235 123.036 147.069 123.057 146.902 123.016C146.154 122.87 145.499 121.816 145.436 120.678C145.395 119.979 145.592 119.374 145.956 119.061C146.174 118.873 146.434 118.8 146.715 118.852C147.464 118.998 148.119 120.042 148.171 121.189C148.213 121.889 148.015 122.494 147.651 122.817C147.568 122.89 147.474 122.943 147.381 122.984ZM145.571 120.678C145.634 121.763 146.237 122.755 146.923 122.89C147.152 122.932 147.381 122.87 147.568 122.713C147.901 122.421 148.077 121.857 148.036 121.2C147.973 120.115 147.37 119.123 146.684 118.988C146.455 118.946 146.226 118.998 146.039 119.165C145.717 119.447 145.54 120.021 145.571 120.678Z" fill="white"/>
<g opacity="0.3">
<path opacity="0.3" d="M141.952 121.252C142.098 122.327 142.868 123.256 143.647 123.318C144.438 123.381 144.958 122.567 144.802 121.492C144.646 120.417 143.887 119.489 143.107 119.426C142.316 119.363 141.796 120.177 141.952 121.252Z" fill="white"/>
</g>
<g opacity="0.3">
<path opacity="0.3" d="M145.446 120.772C145.592 121.857 146.299 122.817 147.027 122.922C147.744 123.026 148.212 122.243 148.066 121.169C147.921 120.083 147.214 119.123 146.486 119.009C145.758 118.904 145.29 119.697 145.446 120.772Z" fill="white"/>
</g>
<path d="M144.167 123.266C144.022 123.318 143.855 123.349 143.678 123.329C142.815 123.266 141.984 122.275 141.828 121.116C141.734 120.449 141.89 119.854 142.233 119.478C142.483 119.217 142.795 119.103 143.138 119.123C144.001 119.186 144.833 120.177 144.989 121.336C145.082 122.003 144.926 122.609 144.573 122.974C144.458 123.109 144.323 123.203 144.167 123.266ZM142.701 119.322C142.566 119.374 142.441 119.457 142.327 119.572C142.004 119.916 141.869 120.48 141.952 121.106C142.098 122.202 142.878 123.141 143.678 123.203C143.98 123.224 144.261 123.12 144.479 122.89C144.802 122.556 144.937 121.972 144.854 121.356C144.708 120.261 143.928 119.322 143.127 119.259C142.982 119.249 142.836 119.269 142.701 119.322Z" fill="white"/>
<path d="M145.717 121.096C145.686 121.106 145.665 121.106 145.634 121.096C145.613 121.085 145.228 120.97 144.739 121.263C144.677 121.294 144.604 121.283 144.563 121.221C144.521 121.158 144.542 121.085 144.604 121.054C145.187 120.678 145.686 120.856 145.706 120.856C145.769 120.876 145.81 120.949 145.779 121.012C145.779 121.054 145.748 121.085 145.717 121.096Z" fill="white"/>
<path d="M146.039 121.649C146.019 121.659 145.998 121.659 145.977 121.649C145.946 121.628 145.935 121.586 145.956 121.555C145.967 121.534 146.164 121.085 146.736 121.169C146.767 121.179 146.798 121.21 146.788 121.242C146.788 121.273 146.746 121.294 146.715 121.294C146.351 121.325 146.081 121.596 146.071 121.617C146.06 121.628 146.05 121.638 146.039 121.649Z" fill="#060633"/>
<path d="M144.427 122.087C144.448 122.076 144.458 122.066 144.469 122.045C144.479 122.014 144.458 121.972 144.427 121.962C144.406 121.951 143.959 121.743 143.585 122.191C143.564 122.223 143.564 122.264 143.595 122.285C143.626 122.306 143.658 122.296 143.689 122.275C143.98 122.056 144.365 122.076 144.385 122.087C144.406 122.097 144.417 122.097 144.427 122.087Z" fill="#060633"/>
<path d="M157.883 153.819C157.852 153.819 157.82 153.809 157.8 153.777C157.176 152.974 156.822 151.878 156.635 151.106C156.437 150.271 156.375 149.614 156.375 149.603C156.375 149.551 156.417 149.499 156.469 149.499C156.521 149.499 156.573 149.541 156.573 149.593C156.573 149.614 156.791 152.16 157.956 153.652C157.987 153.694 157.987 153.757 157.935 153.798C157.924 153.809 157.904 153.819 157.883 153.819Z" fill="#2F1A31"/>
<path d="M152.953 134.181H152.808V137.196H152.953V134.181Z" fill="#2F1A31"/>
<path d="M154.367 127.252L154.565 132.981C154.565 133.836 153.878 134.536 153.036 134.536H152.735C151.892 134.536 151.206 133.836 151.206 132.981C151.206 132.981 151.518 127.263 151.518 127.252C151.518 127.252 154.367 127.242 154.367 127.252Z" fill="#2F1A31"/>
<path d="M154.169 131.019L154.367 132.824C154.367 133.576 153.753 134.191 153.015 134.191H152.755C152.017 134.191 151.403 133.576 151.403 132.824L151.59 131.019H154.169Z" fill="#D7A444"/>
<path d="M154.18 131.019C154.18 131.071 153.597 131.113 152.88 131.113C152.162 131.113 151.58 131.071 151.58 131.019C151.58 130.967 152.162 130.925 152.88 130.925C153.597 130.925 154.18 130.967 154.18 131.019Z" fill="#FCBF95"/>
<path d="M154.107 137.29C154.107 137.395 153.556 137.478 152.88 137.478C152.204 137.478 151.653 137.395 151.653 137.29C151.653 137.186 152.204 137.103 152.88 137.103C153.556 137.103 154.107 137.186 154.107 137.29Z" fill="#2F1A31"/>
<path d="M152.942 127.523C153.729 127.523 154.367 127.402 154.367 127.252C154.367 127.102 153.729 126.981 152.942 126.981C152.155 126.981 151.518 127.102 151.518 127.252C151.518 127.402 152.155 127.523 152.942 127.523Z" fill="#5B3560"/>
<path d="M151.882 129.955C151.83 129.955 151.788 129.913 151.798 129.861L151.954 127.983C151.954 127.93 151.996 127.899 152.048 127.899C152.1 127.899 152.131 127.941 152.131 127.993L151.975 129.871C151.965 129.913 151.923 129.955 151.882 129.955Z" fill="#CCDDDB"/>
<path d="M146.683 136.007C146.683 136.007 148.742 133.597 150.593 133.565C152.444 133.534 154.825 134.89 153.692 135.162C152.548 135.423 150.999 135.36 150.999 135.36C150.999 135.36 154.305 135.652 153.9 136.403C153.494 137.155 150.624 136.863 150.624 136.863C150.624 136.863 154.534 137.53 153.921 138.115C153.307 138.699 150.344 138.167 150.344 138.167C150.344 138.167 153.962 138.939 153.234 139.597C152.506 140.254 150.25 138.939 149.844 139.69C149.439 140.442 147.578 143.27 145.373 142.393L146.683 136.007Z" fill="#F7B686"/>
<path d="M149.626 135.652C149.595 135.652 149.553 135.642 149.532 135.61C149.48 135.558 149.491 135.475 149.543 135.423C150.021 134.995 150.978 135.214 151.019 135.224C151.092 135.245 151.134 135.308 151.113 135.381C151.092 135.454 151.03 135.496 150.957 135.475C150.946 135.475 150.094 135.266 149.719 135.61C149.688 135.642 149.657 135.652 149.626 135.652Z" fill="#E08B65"/>
<path d="M148.991 137.197C148.95 137.197 148.908 137.176 148.877 137.134C148.836 137.071 148.856 136.988 148.919 136.957C149.678 136.497 150.603 136.737 150.645 136.748C150.718 136.769 150.759 136.842 150.738 136.904C150.718 136.977 150.645 137.019 150.582 136.998C150.572 136.998 149.73 136.779 149.064 137.176C149.033 137.186 149.012 137.197 148.991 137.197Z" fill="#E08B65"/>
<path d="M83.1165 159.767C83.1165 159.767 78.0836 154.56 79.8097 151.596C81.5463 148.633 84.4683 157.962 84.4683 157.962C84.4683 157.962 82.9501 146.932 86.0905 146.734C89.2308 146.546 86.0905 157.962 86.0905 157.962C86.0905 157.962 87.2551 155.301 88.3885 155.134C89.522 154.967 89.1996 157.388 87.1719 159.756H83.1165V159.767Z" fill="#BED5DC"/>
<path d="M83.4697 159.892C83.4593 159.882 82.0139 158.379 80.8388 156.49C79.2271 153.913 78.8423 151.868 79.695 150.407C80.0174 149.864 80.3917 149.614 80.8284 149.666C82.305 149.833 83.9272 153.736 84.7591 156.052C84.6759 155.123 84.5823 153.903 84.5407 152.619C84.4471 148.967 84.8423 146.567 85.7262 145.482C86.0693 145.064 86.4749 144.845 86.9532 144.814C87.4211 144.783 87.7955 144.95 88.0866 145.315C89.5112 147.068 88.2322 153.339 87.5251 156.261C88.045 155.405 88.7833 154.456 89.5424 154.341C89.896 154.289 90.1871 154.424 90.3431 154.716C90.811 155.562 90.1767 157.732 88.3258 159.892L88.045 159.652C89.8648 157.523 90.3639 155.52 90.0208 154.894C89.9376 154.737 89.8024 154.675 89.5944 154.706C88.617 154.852 87.4835 156.991 87.13 157.805L86.7868 157.68C86.7972 157.659 87.4835 155.134 87.941 152.379C88.5442 148.769 88.4922 146.41 87.7955 145.544C87.5875 145.283 87.3171 145.169 86.974 145.19C86.5996 145.21 86.2877 145.388 86.0069 145.722C84.0104 148.163 85.2894 157.607 85.2998 157.711L84.9359 157.795C84.2808 155.697 82.2427 150.219 80.7661 150.052C80.4853 150.021 80.2357 150.209 79.9862 150.616C78.1144 153.819 83.6465 159.6 83.7088 159.652L83.4697 159.892Z" fill="#42428E"/>
</g>
<defs>
<clipPath id="clip0_1829_297">
<rect width="287" height="192" fill="white" transform="translate(0.5)"/>
</clipPath>
</defs>
</svg>
