<svg width="16" height="18" viewBox="0 0 16 18" fill="none" xmlns="http://www.w3.org/2000/svg">
    <path d="M13.5749 12.3269C12.3922 11.2186 10.8243 10.6082 9.16 10.6082H7.24C5.57574 10.6082 4.00781 11.2186 2.82509 12.3269C1.64816 13.4297 1 14.8855 1 16.4261C1 16.6707 1.21491 16.8691 1.48 16.8691H14.92C15.1851 16.8691 15.4 16.6707 15.4 16.4261C15.4 14.8855 14.7518 13.4297 13.5749 12.3269Z" stroke="#A5B6AA"/>
    <path d="M8.33137 1C6.49445 1 5 2.54318 5 4.44C5 6.33682 6.49445 7.88 8.33137 7.88C10.1683 7.88 11.6627 6.33682 11.6627 4.44C11.6627 2.54318 10.1683 1 8.33137 1Z" stroke="#A5B6AA"/>
</svg>
