<svg xmlns="http://www.w3.org/2000/svg" version="1.1" width="256" height="256" viewBox="0 0 256 256"
	xml:space="preserve">
<desc>Created with Fabric.js 1.7.22</desc>
<defs>
</defs>
<g transform="translate(128 128) scale(0.72 0.72)" style="">
	<g style="stroke: none; stroke-width: 0; stroke-dasharray: none; stroke-linecap: butt; stroke-linejoin: miter; stroke-miterlimit: 10; fill: none; fill-rule: nonzero; opacity: 1;" transform="translate(-175.05 -175.05000000000004) scale(3.89 3.89)" >
	<path d="M 65.122 13.164 H 24.877 c -1.104 0 -2 -0.896 -2 -2 s 0.896 -2 2 -2 h 40.245 c 1.104 0 2 0.896 2 2 S 66.227 13.164 65.122 13.164 z" style="stroke: none; stroke-width: 1; stroke-dasharray: none; stroke-linecap: butt; stroke-linejoin: miter; stroke-miterlimit: 10; fill: rgb(0,0,0); fill-rule: nonzero; opacity: 1;" transform=" matrix(1 0 0 1 0 0) " stroke-linecap="round" />
	<path d="M 88 30.453 H 2 c -1.104 0 -2 -0.896 -2 -2 v -9.082 C 0 13.743 4.579 9.164 10.207 9.164 h 6.55 c 1.104 0 2 0.896 2 2 s -0.896 2 -2 2 h -6.55 C 6.785 13.164 4 15.949 4 19.371 v 7.082 h 82 v -7.082 c 0 -3.422 -2.784 -6.207 -6.207 -6.207 h -6.55 c -1.104 0 -2 -0.896 -2 -2 s 0.896 -2 2 -2 h 6.55 C 85.421 9.164 90 13.743 90 19.371 v 9.082 C 90 29.557 89.104 30.453 88 30.453 z" style="stroke: none; stroke-width: 1; stroke-dasharray: none; stroke-linecap: butt; stroke-linejoin: miter; stroke-miterlimit: 10; fill: rgb(0,0,0); fill-rule: nonzero; opacity: 1;" transform=" matrix(1 0 0 1 0 0) " stroke-linecap="round" />
	<path d="M 79.793 89.102 H 10.207 C 4.579 89.102 0 84.522 0 78.895 V 28.453 c 0 -1.104 0.896 -2 2 -2 h 86 c 1.104 0 2 0.896 2 2 v 50.442 C 90 84.522 85.421 89.102 79.793 89.102 z M 4 30.453 v 48.442 c 0 3.423 2.785 6.207 6.207 6.207 h 69.586 c 3.423 0 6.207 -2.784 6.207 -6.207 V 30.453 H 4 z" style="stroke: none; stroke-width: 1; stroke-dasharray: none; stroke-linecap: butt; stroke-linejoin: miter; stroke-miterlimit: 10; fill: rgb(0,0,0); fill-rule: nonzero; opacity: 1;" transform=" matrix(1 0 0 1 0 0) " stroke-linecap="round" />
	<path d="M 23.255 53.637 h -4.876 c -2.577 0 -4.674 -2.097 -4.674 -4.674 v -4.875 c 0 -2.577 2.097 -4.674 4.674 -4.674 h 4.876 c 2.577 0 4.673 2.097 4.673 4.674 v 4.875 C 27.929 51.54 25.832 53.637 23.255 53.637 z M 18.379 43.414 c -0.372 0 -0.674 0.302 -0.674 0.674 v 4.875 c 0 0.371 0.302 0.674 0.674 0.674 h 4.876 c 0.371 0 0.673 -0.303 0.673 -0.674 v -4.875 c 0 -0.372 -0.302 -0.674 -0.673 -0.674 H 18.379 z" style="stroke: none; stroke-width: 1; stroke-dasharray: none; stroke-linecap: butt; stroke-linejoin: miter; stroke-miterlimit: 10; fill: rgb(0,0,0); fill-rule: nonzero; opacity: 1;" transform=" matrix(1 0 0 1 0 0) " stroke-linecap="round" />
	<path d="M 47.438 53.637 h -4.875 c -2.577 0 -4.674 -2.097 -4.674 -4.674 v -4.875 c 0 -2.577 2.097 -4.674 4.674 -4.674 h 4.875 c 2.577 0 4.674 2.097 4.674 4.674 v 4.875 C 52.111 51.54 50.015 53.637 47.438 53.637 z M 42.562 43.414 c -0.372 0 -0.674 0.302 -0.674 0.674 v 4.875 c 0 0.371 0.302 0.674 0.674 0.674 h 4.875 c 0.371 0 0.674 -0.303 0.674 -0.674 v -4.875 c 0 -0.372 -0.303 -0.674 -0.674 -0.674 H 42.562 z" style="stroke: none; stroke-width: 1; stroke-dasharray: none; stroke-linecap: butt; stroke-linejoin: miter; stroke-miterlimit: 10; fill: rgb(0,0,0); fill-rule: nonzero; opacity: 1;" transform=" matrix(1 0 0 1 0 0) " stroke-linecap="round" />
	<path d="M 71.62 53.637 h -4.875 c -2.577 0 -4.674 -2.097 -4.674 -4.674 v -4.875 c 0 -2.577 2.097 -4.674 4.674 -4.674 h 4.875 c 2.577 0 4.674 2.097 4.674 4.674 v 4.875 C 76.294 51.54 74.197 53.637 71.62 53.637 z M 66.745 43.414 c -0.371 0 -0.674 0.302 -0.674 0.674 v 4.875 c 0 0.371 0.303 0.674 0.674 0.674 h 4.875 c 0.371 0 0.674 -0.303 0.674 -0.674 v -4.875 c 0 -0.372 -0.303 -0.674 -0.674 -0.674 H 66.745 z" style="stroke: none; stroke-width: 1; stroke-dasharray: none; stroke-linecap: butt; stroke-linejoin: miter; stroke-miterlimit: 10; fill: rgb(0,0,0); fill-rule: nonzero; opacity: 1;" transform=" matrix(1 0 0 1 0 0) " stroke-linecap="round" />
	<path d="M 23.255 74.665 h -4.876 c -2.577 0 -4.674 -2.097 -4.674 -4.674 v -4.875 c 0 -2.577 2.097 -4.674 4.674 -4.674 h 4.876 c 2.577 0 4.673 2.097 4.673 4.674 v 4.875 C 27.929 72.568 25.832 74.665 23.255 74.665 z M 18.379 64.442 c -0.372 0 -0.674 0.303 -0.674 0.674 v 4.875 c 0 0.371 0.302 0.674 0.674 0.674 h 4.876 c 0.371 0 0.673 -0.303 0.673 -0.674 v -4.875 c 0 -0.371 -0.302 -0.674 -0.673 -0.674 H 18.379 z" style="stroke: none; stroke-width: 1; stroke-dasharray: none; stroke-linecap: butt; stroke-linejoin: miter; stroke-miterlimit: 10; fill: rgb(0,0,0); fill-rule: nonzero; opacity: 1;" transform=" matrix(1 0 0 1 0 0) " stroke-linecap="round" />
	<path d="M 47.438 74.665 h -4.875 c -2.577 0 -4.674 -2.097 -4.674 -4.674 v -4.875 c 0 -2.577 2.097 -4.674 4.674 -4.674 h 4.875 c 2.577 0 4.674 2.097 4.674 4.674 v 4.875 C 52.111 72.568 50.015 74.665 47.438 74.665 z M 42.562 64.442 c -0.372 0 -0.674 0.303 -0.674 0.674 v 4.875 c 0 0.371 0.302 0.674 0.674 0.674 h 4.875 c 0.371 0 0.674 -0.303 0.674 -0.674 v -4.875 c 0 -0.371 -0.303 -0.674 -0.674 -0.674 H 42.562 z" style="stroke: none; stroke-width: 1; stroke-dasharray: none; stroke-linecap: butt; stroke-linejoin: miter; stroke-miterlimit: 10; fill: rgb(0,0,0); fill-rule: nonzero; opacity: 1;" transform=" matrix(1 0 0 1 0 0) " stroke-linecap="round" />
	<path d="M 71.62 74.665 h -4.875 c -2.577 0 -4.674 -2.097 -4.674 -4.674 v -4.875 c 0 -2.577 2.097 -4.674 4.674 -4.674 h 4.875 c 2.577 0 4.674 2.097 4.674 4.674 v 4.875 C 76.294 72.568 74.197 74.665 71.62 74.665 z M 66.745 64.442 c -0.371 0 -0.674 0.303 -0.674 0.674 v 4.875 c 0 0.371 0.303 0.674 0.674 0.674 h 4.875 c 0.371 0 0.674 -0.303 0.674 -0.674 v -4.875 c 0 -0.371 -0.303 -0.674 -0.674 -0.674 H 66.745 z" style="stroke: none; stroke-width: 1; stroke-dasharray: none; stroke-linecap: butt; stroke-linejoin: miter; stroke-miterlimit: 10; fill: rgb(0,0,0); fill-rule: nonzero; opacity: 1;" transform=" matrix(1 0 0 1 0 0) " stroke-linecap="round" />
	<path d="M 22.204 21.43 h -2.773 c -2.577 0 -4.674 -2.097 -4.674 -4.673 V 5.572 c 0 -2.577 2.097 -4.674 4.674 -4.674 h 2.773 c 2.577 0 4.674 2.097 4.674 4.674 v 11.185 C 26.877 19.333 24.781 21.43 22.204 21.43 z M 19.431 4.898 c -0.372 0 -0.674 0.302 -0.674 0.674 v 11.185 c 0 0.371 0.302 0.673 0.674 0.673 h 2.773 c 0.372 0 0.674 -0.302 0.674 -0.673 V 5.572 c 0 -0.372 -0.302 -0.674 -0.674 -0.674 H 19.431 z" style="stroke: none; stroke-width: 1; stroke-dasharray: none; stroke-linecap: butt; stroke-linejoin: miter; stroke-miterlimit: 10; fill: rgb(0,0,0); fill-rule: nonzero; opacity: 1;" transform=" matrix(1 0 0 1 0 0) " stroke-linecap="round" />
	<path d="M 70.569 21.43 h -2.773 c -2.577 0 -4.674 -2.097 -4.674 -4.673 V 5.572 c 0 -2.577 2.097 -4.674 4.674 -4.674 h 2.773 c 2.577 0 4.674 2.097 4.674 4.674 v 11.185 C 75.243 19.333 73.146 21.43 70.569 21.43 z M 67.796 4.898 c -0.371 0 -0.674 0.302 -0.674 0.674 v 11.185 c 0 0.371 0.303 0.673 0.674 0.673 h 2.773 c 0.371 0 0.674 -0.302 0.674 -0.673 V 5.572 c 0 -0.372 -0.303 -0.674 -0.674 -0.674 H 67.796 z" style="stroke: none; stroke-width: 1; stroke-dasharray: none; stroke-linecap: butt; stroke-linejoin: miter; stroke-miterlimit: 10; fill: rgb(0,0,0); fill-rule: nonzero; opacity: 1;" transform=" matrix(1 0 0 1 0 0) " stroke-linecap="round" />
</g>
</g>
</svg>