<svg width="24" height="22" viewBox="0 0 24 22" fill="none" xmlns="http://www.w3.org/2000/svg">
<path d="M22.4607 18.2965L22.0424 20.3463C21.8943 21.0717 21.2563 21.5927 20.5159 21.5927H2.44696C1.46132 21.5927 0.723451 20.6891 0.920458 19.7233L2.65815 11.2068C2.77943 10.6126 3.2127 10.1496 3.76568 9.97142C3.80505 9.95869 3.84516 9.94743 3.88562 9.93761C3.88768 9.93713 3.88974 9.93676 3.8918 9.93628C3.92985 9.92719 3.96826 9.91932 4.00715 9.9129C4.01939 9.91096 4.03174 9.90974 4.0441 9.90805C4.07403 9.90381 4.10408 9.89957 4.13449 9.89702C4.17908 9.89339 4.22403 9.89109 4.26946 9.89109H4.97728H19.2421H20.4537H22.4605H23.2161C23.433 9.89109 23.626 9.97808 23.7662 10.1166C23.9063 10.2551 23.9938 10.4452 23.9995 10.6514C24.0011 10.7103 23.9961 10.7705 23.9838 10.8312L22.4607 18.2965ZM22.4529 8.67948C22.3802 7.98729 21.7932 7.44594 21.0821 7.44594H20.4537V8.67948H22.4529ZM1.47113 10.9646C1.70703 9.80833 2.63464 8.92919 3.7658 8.72479V5.38754H1.6175C0.725632 5.38754 0 6.11317 0 7.00492V18.1741L1.47113 10.9646ZM19.2421 1.08767V8.67948H4.9774V1.08767C4.9774 0.712674 5.28261 0.407471 5.6576 0.407471H18.5621C18.9371 0.407471 19.2421 0.712553 19.2421 1.08767ZM17.4986 6.4523C17.4986 6.11778 17.2275 5.8465 16.8928 5.8465H7.32671C6.99219 5.8465 6.72091 6.11778 6.72091 6.4523C6.72091 6.78683 6.99219 7.0581 7.32671 7.0581H16.8928C17.2275 7.0581 17.4986 6.78683 17.4986 6.4523ZM17.4986 3.32429C17.4986 2.98977 17.2275 2.71849 16.8928 2.71849H7.32671C6.99219 2.71849 6.72091 2.98977 6.72091 3.32429C6.72091 3.65882 6.99219 3.9301 7.32671 3.9301H16.8928C17.2275 3.9301 17.4986 3.65882 17.4986 3.32429Z" fill="#2169E8"/>
</svg>
