<svg id="Layer_1" data-name="Layer 1" xmlns="http://www.w3.org/2000/svg" viewBox="0 0 500.46 401.33"><defs><style>.cls-1{fill:#f2c266;}.cls-2{fill:#392316;}</style></defs><path class="cls-1" d="M500.46,237.79c-1.34,6.44-2.29,13-4.08,19.29-7.67,27-24,48.14-45.61,65.47-2.91,2.33-6.09,2.87-10.12,2.32A53.73,53.73,0,0,0,401.84,334a177.35,177.35,0,0,0-14.5,10.52c-4,3.37-7.87,3.45-12.61,1.62,46.93-53,77.49-113.37,86.71-183.75-10.88,43.69-28,84.71-54.06,121.65-7.61,10.78-16.44,20.69-25.22,31.63-21.63-69.67-.52-160.51,98.35-205.9,1.91,4.88,4.16,9.61,5.62,14.58A359,359,0,0,1,499.5,197a40.44,40.44,0,0,0,1,4.83Z"/><path class="cls-1" d="M339,401.33v-6.06q0-47.17,0-94.33c0-12.48-3.84-16.27-16.38-16.28l-23.95,0a11.64,11.64,0,0,1-1.54-.26V230.47h-22V366.31h21.54V307.08H316.6V397.7c-8.41-1.17-16.83-2.83-25.32-3.43-16-1.12-32.13-2.31-48.19-2.23-17.43.09-34.89,1.14-52.27,2.62a323,323,0,0,0-36.32,5.45c-13.44,2.7-23.1-1-30.34-12.94-6.77-11.16-8.77-23.7-8.74-36.3.07-30.09,1.22-60.18,1.44-90.28q.63-82.81.59-165.64c0-15.26-1.91-30.52-2-45.79a75.83,75.83,0,0,1,6.21-31c4-9.24,11.87-12.83,20.94-13.65a43.58,43.58,0,0,1,17.14,1.6c16.46,5.42,32.85,5.42,49.48,1.53,1.25-.29,2.55-.39,4.5-.67V19.65c0,11.48-.16,23,.08,34.43.08,3.84-1.23,4.93-4.87,4.73-4.76-.27-9.55-.07-14.57-.07V75.05h19v65.47H168.5v-37.3h36.74v-22c-1.28-.11-2.56-.32-3.84-.32-13.47,0-26.94-.07-40.42,0-10.47,0-14.9,4.5-14.91,14.82q0,26.21,0,52.41c0,9.66,4.56,14.65,14.19,14.74q30.68.3,61.37,0c8.57-.09,12.62-4,13.89-12.53a39.6,39.6,0,0,0,.28-6q0-66.89,0-133.76V3.06c9.59,2.27,18.25,4.72,27.07,6.3s17.67,3.12,26.52,3.11c10.06,0,20.1-2.09,30.18-2.67,10.24-.59,20.51-.64,30.77-.56,5.21,0,8.92,3,11.42,7.61,5.57,10.16,7.81,21.28,7.75,32.57-.14,30.76-1.09,61.52-1.46,92.28-.36,30.44-.38,60.88-.56,91.32-.26,42.75-.25,85.5-1,128.24-.16,9.12-2.78,18.27-5,27.23-1.61,6.52-5.71,11.13-13.22,11.46C345.51,400.08,342.76,400.75,339,401.33Zm0-138c0-6.11,0-11.76,0-17.4,0-17.3.08-34.6-.12-51.9-.08-7.44-4-11.47-11.07-12.26a68.76,68.76,0,0,0-7.46-.37q-46.91,0-93.81,0c-21.46,0-42.92-.06-64.38,0-11.87,0-16.09,4.28-16.09,15.76q0,30.45,0,60.9v5.27h22.11V203.94H232v59.32h22V204H317.1v59.35ZM294.29,80.84c-10.14,0-20.29-.08-30.44,0-9.75.1-14,4.2-14.09,13.94q-.24,26.7,0,53.4c.07,10,4.72,14.6,14.73,14.66q29.94.16,59.88,0c9.93-.06,14.57-4.78,14.63-14.75q.15-26.46,0-52.91c-.07-10.08-4.25-14.23-14.24-14.33C314.58,80.76,304.44,80.84,294.29,80.84ZM253.84,366.41c0-22.86.14-45.14-.06-67.41-.1-10-5-14.32-15.07-14.34q-20.7,0-41.4,0c-10.85,0-15.29,4.51-15.3,15.53q0,30.69,0,61.37c0,1.6.15,3.2.22,4.68h22V307h27.65v59.37ZM146.42,304v62.24h21.41V304ZM306.51,68.26c.87,5.24,3.53,6,12.35,3.88,0-2.24,0-4.55,0-6.87,0-4.48-2.54-7-6.68-7.09q-17.94-.36-35.9,0c-3.86.09-6.41,2.55-6.45,6.8,0,2.45,0,4.91,0,7.6H281.4c.39-1.68.71-3,1-4.35ZM270,49.86c8.78.89,17.24,1.53,25.63,2.67,7.75,1.06,15.38,1.67,22.93-.85V44.51c-8.91-.71-17.45-1-25.87-2.17-7.58-1-15-2.21-22.69.49ZM167.86,284.92H146.3v10.21h21.56Z"/><path class="cls-1" d="M110.93,350.35c-3.9,1.67-7.09,1.57-10.48-.89-8.86-6.43-17.85-13-28.89-14.93-6.3-1.11-12.88-.48-19.3-1-2.66-.21-5.74-.7-7.79-2.2C23.45,316,7.16,296.92,3.18,270.47c-2-13.3-1.59-27.19-.48-40.67a219.84,219.84,0,0,1,12.62-58.54c1-2.75,2.37-5.38,3.56-8C100,195.25,125,267.43,104.61,325.57,69.6,292.09,48.52,251,35.54,205.14,44.06,262.06,71.11,309.39,110.93,350.35Z"/><path class="cls-1" d="M375.69,352.05c23.88,6.94,47.12,13.69,71.29,4.79a172.4,172.4,0,0,1-60.24-6.71c29-26.81,56.75-32.35,93.2-.13-2.64,2.85-5.22,5.76-7.94,8.53-9.24,9.43-19.37,17.67-31.32,23.52-18.88,9.25-37.51,2.82-51.4-9.52C382.06,366.12,378.34,360.34,375.69,352.05Z"/><path class="cls-1" d="M19.52,353.56c29.56-24.48,54.24-22.65,81,0a158.51,158.51,0,0,1-52.07,5.34c20.85,7.12,41,1.44,62-3.87-6,13.66-16.11,21-28.76,25.39-9.68,3.33-19.21,2.5-28.54-1.72C40.05,372.8,29.4,363.77,19.52,353.56Z"/><path class="cls-1" d="M272,140.45V103.21h44.59v37.24Z"/><path class="cls-2" d="M498.69,234.73c-1.34,6.44-2.3,13-4.09,19.29-7.66,27-24,48.15-45.6,65.47-2.91,2.33-6.09,2.87-10.12,2.32a53.76,53.76,0,0,0-38.81,9.12c-4.92,3.39-10,6.67-14.5,10.52-4,3.38-7.87,3.45-12.61,1.62,46.92-53,77.48-113.37,86.7-183.75C448.79,203,431.7,244,405.61,281c-7.61,10.77-16.44,20.68-25.22,31.62-21.63-69.67-.52-160.51,98.35-205.9,1.9,4.88,4.16,9.62,5.62,14.58A359,359,0,0,1,497.73,194a40.68,40.68,0,0,0,1,4.82Z"/><path class="cls-2" d="M337.23,398.27v-6.06q0-47.16,0-94.33c0-12.48-3.84-16.27-16.38-16.28l-24,0a12.9,12.9,0,0,1-1.55-.25v-53.9h-22V363.25h21.55V304h19.91v90.62c-8.4-1.18-16.82-2.84-25.31-3.44-16-1.12-32.13-2.3-48.19-2.22-17.43.08-34.9,1.14-52.27,2.61a325.35,325.35,0,0,0-36.32,5.45c-13.45,2.71-23.1-1-30.34-12.93-6.77-11.17-8.77-23.7-8.74-36.3.07-30.1,1.21-60.19,1.44-90.29q.63-82.81.58-165.64c0-15.26-1.9-30.52-2-45.79a75.5,75.5,0,0,1,6.21-31c4-9.24,11.87-12.83,20.94-13.65a43.72,43.72,0,0,1,17.13,1.6c16.46,5.42,32.86,5.43,49.49,1.53,1.25-.29,2.55-.39,4.5-.67V16.59c0,11.48-.16,23,.08,34.44.08,3.84-1.23,4.92-4.87,4.72-4.76-.27-9.55-.07-14.57-.07V72h19v65.48H166.73V100.16h36.74v-22c-1.29-.11-2.56-.32-3.84-.32-13.47,0-26.95-.07-40.42,0-10.47.06-14.9,4.5-14.91,14.82q0,26.21,0,52.41c0,9.66,4.56,14.65,14.18,14.75q30.69.28,61.38,0c8.56-.09,12.62-4,13.89-12.53a39.6,39.6,0,0,0,.28-6q0-66.87,0-133.76V0c9.59,2.27,18.25,4.73,27.07,6.3s17.67,3.12,26.52,3.11c10.06,0,20.1-2.09,30.18-2.67,10.23-.59,20.51-.63,30.76-.56,5.22,0,8.93,3,11.43,7.61,5.57,10.16,7.8,21.28,7.75,32.57-.14,30.76-1.1,61.52-1.46,92.28-.36,30.44-.38,60.88-.56,91.33-.26,42.74-.26,85.5-1,128.24-.17,9.11-2.78,18.27-5,27.22-1.61,6.52-5.71,11.13-13.22,11.47C343.74,397,341,397.69,337.23,398.27Zm0-138v-17.4c0-17.3.08-34.6-.12-51.9-.08-7.44-4-11.46-11.07-12.25a66.32,66.32,0,0,0-7.46-.38q-46.9,0-93.82,0c-21.45,0-42.91-.06-64.37,0-11.87,0-16.09,4.27-16.1,15.76q0,30.44,0,60.89v5.28h22.1V200.89h63.79V260.2h22V200.92h63.17v59.35ZM292.52,77.79c-10.15,0-20.29-.09-30.44,0-9.75.1-14,4.21-14.1,13.94q-.22,26.7,0,53.4c.07,10,4.73,14.6,14.74,14.66q29.93.16,59.87,0c9.94-.06,14.58-4.78,14.64-14.76q.15-26.45,0-52.9c-.06-10.08-4.25-14.24-14.23-14.34C312.81,77.71,302.67,77.79,292.52,77.79ZM252.07,363.35c0-22.85.14-45.13-.07-67.41-.09-10-5-14.32-15.06-14.33q-20.7,0-41.41,0c-10.85,0-15.28,4.51-15.29,15.54q0,30.67,0,61.37c0,1.59.14,3.19.22,4.67h22V304h27.66v59.36ZM144.64,300.94v62.24h21.42V300.94ZM304.74,65.2c.86,5.24,3.53,6,12.35,3.88,0-2.24,0-4.55,0-6.87,0-4.48-2.54-7-6.68-7.09q-18-.36-35.91,0c-3.85.09-6.4,2.55-6.44,6.81,0,2.45,0,4.9,0,7.59h11.57c.39-1.67.71-3,1-4.35ZM268.27,46.8c8.78.89,17.24,1.53,25.63,2.68,7.74,1.05,15.38,1.66,22.93-.85V41.45c-8.91-.71-17.45-1-25.87-2.17-7.59-1-15-2.21-22.69.49ZM166.09,281.86H144.53v10.22h21.56Z"/><path class="cls-2" d="M109.16,347.3c-3.9,1.67-7.09,1.56-10.48-.9-8.87-6.43-17.85-13-28.89-14.93-6.3-1.11-12.88-.48-19.3-1-2.66-.21-5.74-.7-7.79-2.2-21-15.33-37.32-34.41-41.3-60.86-2-13.3-1.58-27.19-.47-40.67A219.92,219.92,0,0,1,13.55,168.2c1-2.75,2.37-5.38,3.56-8,81.11,32,106.1,104.21,85.72,162.35C67.83,289,46.75,247.9,33.77,202.08,42.29,259,69.34,306.33,109.16,347.3Z"/><path class="cls-2" d="M373.92,349c23.88,6.94,47.11,13.69,71.28,4.79A172.21,172.21,0,0,1,385,347.07c29-26.81,56.76-32.35,93.21-.12-2.65,2.84-5.23,5.75-7.94,8.52-9.24,9.44-19.37,17.67-31.32,23.53-18.88,9.25-37.51,2.81-51.41-9.53C380.29,363.06,376.57,357.28,373.92,349Z"/><path class="cls-2" d="M17.74,350.5c29.57-24.47,54.24-22.65,81,0a158.51,158.51,0,0,1-52.07,5.34c20.85,7.12,41,1.44,62-3.87-6,13.66-16.11,21-28.76,25.39-9.68,3.33-19.22,2.5-28.55-1.72C38.28,369.74,27.63,360.71,17.74,350.5Z"/><path class="cls-2" d="M270.26,137.4V100.15h44.59V137.4Z"/></svg>