<svg width="40" height="38" viewBox="0 0 40 38" fill="none" xmlns="http://www.w3.org/2000/svg">
<path d="M38.05 16.04L21.632 2.19099C21.1755 1.80608 20.5976 1.59497 20.0005 1.59497C19.4034 1.59497 18.8255 1.80608 18.369 2.19099L1.95399 16.04C1.7559 16.2074 1.61399 16.4316 1.54746 16.6822C1.48093 16.9329 1.49299 17.1979 1.582 17.4415C1.67102 17.6851 1.83269 17.8955 2.04516 18.0442C2.25763 18.1929 2.51065 18.2728 2.76999 18.273H7.11299V35.723C7.11299 35.9882 7.21835 36.2426 7.40588 36.4301C7.59342 36.6176 7.84777 36.723 8.11299 36.723H16.409V30.514C16.3896 29.5687 16.7299 28.6513 17.3611 27.9474C17.9922 27.2434 18.8672 26.8054 19.809 26.722C20.2964 26.6959 20.7841 26.7694 21.2422 26.938C21.7003 27.1066 22.1193 27.3667 22.4736 27.7026C22.8278 28.0384 23.11 28.4429 23.3028 28.8913C23.4956 29.3398 23.595 29.8228 23.595 30.311V36.723H31.891C32.1562 36.723 32.4106 36.6176 32.5981 36.4301C32.7856 36.2426 32.891 35.9882 32.891 35.723V18.273H37.233C37.4923 18.2728 37.7453 18.1929 37.9578 18.0442C38.1703 17.8955 38.332 17.6851 38.421 17.4415C38.51 17.1979 38.522 16.9329 38.4555 16.6822C38.389 16.4316 38.2471 16.2074 38.049 16.04H38.05Z" stroke="black" stroke-width="2" stroke-linecap="round" stroke-linejoin="round"/>
<path d="M20.002 23.665C22.4906 23.665 24.508 21.6476 24.508 19.159C24.508 16.6704 22.4906 14.653 20.002 14.653C17.5134 14.653 15.496 16.6704 15.496 19.159C15.496 21.6476 17.5134 23.665 20.002 23.665Z" stroke="black" stroke-width="2" stroke-linecap="round" stroke-linejoin="round"/>
</svg>
