<svg width="25" height="25" viewBox="0 0 25 25" fill="none" xmlns="http://www.w3.org/2000/svg">
<path d="M21.75 11.521C21.7534 12.8409 21.4451 14.1429 20.85 15.321C20.1444 16.7327 19.0598 17.9202 17.7174 18.7503C16.3751 19.5804 14.8282 20.0204 13.25 20.021C11.9301 20.0244 10.6281 19.7161 9.45 19.121L3.75 21.021L5.65 15.321C5.05493 14.1429 4.74656 12.8409 4.75 11.521C4.75061 9.94275 5.19061 8.39585 6.02072 7.05354C6.85083 5.71124 8.03825 4.62656 9.45 3.92099C10.6281 3.32593 11.9301 3.01755 13.25 3.02099H13.75C15.8343 3.13599 17.803 4.01576 19.2791 5.49185C20.7552 6.96795 21.635 8.93665 21.75 11.021V11.521Z" stroke="#D7A444" stroke-width="2" stroke-linecap="round" stroke-linejoin="round"/>
</svg>
