<svg width="22" height="23" viewBox="0 0 22 23" fill="none" xmlns="http://www.w3.org/2000/svg">
<path d="M21.0004 16.42V19.42C21.0016 19.6985 20.9445 19.9742 20.8329 20.2293C20.7214 20.4845 20.5577 20.7136 20.3525 20.9019C20.1473 21.0901 19.905 21.2335 19.6412 21.3227C19.3773 21.4119 19.0978 21.4451 18.8204 21.42C15.7433 21.0856 12.7874 20.0341 10.1904 18.35C7.77425 16.8147 5.72576 14.7662 4.19042 12.35C2.5004 9.7412 1.44866 6.77099 1.12042 3.68C1.09543 3.40347 1.1283 3.12476 1.21692 2.86162C1.30555 2.59849 1.44799 2.35669 1.63519 2.15162C1.82238 1.94655 2.05023 1.78271 2.30421 1.67052C2.5582 1.55833 2.83276 1.50026 3.11042 1.5H6.11042C6.59573 1.49522 7.06621 1.66708 7.43418 1.98353C7.80215 2.29999 8.0425 2.73945 8.11042 3.22C8.23704 4.18007 8.47187 5.12273 8.81042 6.03C8.94497 6.38792 8.97408 6.77691 8.89433 7.15088C8.81457 7.52485 8.62928 7.86811 8.36042 8.14L7.09042 9.41C8.51398 11.9135 10.5869 13.9864 13.0904 15.41L14.3604 14.14C14.6323 13.8711 14.9756 13.6858 15.3495 13.6061C15.7235 13.5263 16.1125 13.5555 16.4704 13.69C17.3777 14.0286 18.3204 14.2634 19.2804 14.39C19.7662 14.4585 20.2098 14.7032 20.527 15.0775C20.8441 15.4518 21.0126 15.9296 21.0004 16.42Z" stroke="black" stroke-width="2" stroke-linecap="round" stroke-linejoin="round"/>
</svg>
