<svg class="svg-icon" style="width: 1em; height: 1em;vertical-align: middle;fill: currentColor;overflow: hidden;" viewBox="0 0 1024 1024" version="1.1" xmlns="http://www.w3.org/2000/svg"><path d="M512 17.066667C238.933333 17.066667 17.066667 238.933333 17.066667 512S238.933333 1006.933333 512 1006.933333c160.426667 0 310.613333-78.506667 406.186667-208.213333l3.413333-3.413333c17.066667-30.72 6.826667-58.026667-3.413333-71.68-27.306667-37.546667-92.16-54.613333-150.186667-54.613334v-23.893333c0-23.893333-20.48-44.373333-44.373333-44.373333-17.066667 0-34.133333-6.826667-51.2-17.066667-10.24-6.826667-20.48-10.24-34.133334-13.653333-17.066667-6.826667-34.133333 0-47.786666 10.24l-47.786667 51.2c-68.266667-37.546667-109.226667-78.506667-146.773333-146.773334l51.2-47.786666c13.653333-13.653333 17.066667-30.72 10.24-47.786667l-6.826667-17.066667c-10.24-30.72-27.306667-75.093333-27.306667-102.4 0-23.893333-20.48-44.373333-44.373333-44.373333H266.24c-23.893333 0-44.373333 20.48-44.373333 44.373333 0 283.306667 235.52 535.893333 501.76 535.893334 23.893333 0 44.373333-20.48 44.373333-44.373334v-58.026666c54.613333 0 105.813333 17.066667 119.466667 40.96 6.826667 10.24 6.826667 20.48 0 34.133333-85.333333 122.88-228.693333 197.973333-378.88 197.973333C259.413333 972.8 51.2 764.586667 51.2 512S259.413333 51.2 512 51.2 972.8 259.413333 972.8 512c0 10.24 6.826667 17.066667 17.066667 17.066667s17.066667-6.826667 17.066666-17.066667C1006.933333 238.933333 785.066667 17.066667 512 17.066667z" fill="" /></svg>