<svg class="svg-icon" style="width: 1em; height: 1em;vertical-align: middle;fill: currentColor;overflow: hidden;" viewBox="0 0 1024 1024" version="1.1" xmlns="http://www.w3.org/2000/svg"><path d="M901.12 145.92l-381.44-76.8h-12.8-2.56l-381.44 76.8c-12.8 2.56-20.48 12.8-20.48 25.6v332.8c0 253.44 202.24 435.2 404.48 486.4h10.24c199.68-51.2 404.48-232.96 404.48-486.4v-332.8c0-12.8-7.68-23.04-20.48-25.6z m-30.72 358.4c0 222.72-179.2 386.56-358.4 435.2-179.2-48.64-358.4-209.92-358.4-435.2v-312.32l358.4-71.68 358.4 71.68v312.32z"  /><path d="M486.4 350.72v128h-128c-12.8 0-25.6 12.8-25.6 25.6s12.8 25.6 25.6 25.6h128v128c0 12.8 12.8 25.6 25.6 25.6s25.6-12.8 25.6-25.6v-128h128c12.8 0 25.6-12.8 25.6-25.6s-12.8-25.6-25.6-25.6h-128v-128c0-12.8-12.8-25.6-25.6-25.6s-25.6 10.24-25.6 25.6z"  /></svg>