<svg class="svg-icon" style="width: 1em; height: 1em;vertical-align: middle;fill: currentColor;overflow: hidden;" viewBox="0 0 1024 1024" version="1.1" xmlns="http://www.w3.org/2000/svg"><path d="M851.008 972.608H170.176A170.368 170.368 0 0 1 0 802.432V170.24A170.368 170.368 0 0 1 170.176 0h680.832a170.368 170.368 0 0 1 170.176 170.176v632.192a170.368 170.368 0 0 1-170.176 170.24zM170.176 48.64A121.728 121.728 0 0 0 48.64 170.24v632.192a121.6 121.6 0 0 0 121.536 121.472h680.832a121.664 121.664 0 0 0 121.536-121.472V170.24A121.728 121.728 0 0 0 851.008 48.704H170.176z" fill="#4D4D4D" /><path d="M972.544 291.776h-97.28a24.32 24.32 0 1 1 0-48.64h97.28a24.32 24.32 0 1 1 0 48.64zM972.544 583.552h-97.28a24.32 24.32 0 1 1 0-48.576h97.28c13.44 0 24.384 10.88 24.384 24.32a24.32 24.32 0 0 1-24.384 24.256zM972.544 437.696h-97.28a24.32 24.32 0 1 1 0-48.576h97.28c13.44 0 24.384 10.88 24.384 24.256a24.32 24.32 0 0 1-24.384 24.32zM972.544 729.472h-97.28a24.32 24.32 0 0 1 0-48.704h97.28a24.32 24.32 0 1 1 0 48.704zM400.192 705.152c-33.472 0-59.776-29.888-59.776-68.16V335.616c0-38.208 25.984-68.096 59.264-68.096 10.944 0 21.952 3.392 32 9.856l230.592 150.784c18.752 12.096 29.952 33.472 29.952 57.216 0 24.512-11.648 46.656-31.232 59.328l-228.544 150.592a60.16 60.16 0 0 1-32.256 9.856z m-0.512-389.056c-5.056 0-10.688 8-10.688 19.456v301.312c0 11.712 5.76 19.584 11.136 19.584a11.2 11.2 0 0 0 5.632-1.984l228.544-150.592a22.272 22.272 0 0 0 9.216-18.624c0-7.104-2.88-13.248-7.808-16.448L405.12 318.08a10.56 10.56 0 0 0-5.44-1.984z" fill="#4D4D4D" /></svg>